<svg width="47" height="30" viewBox="0 0 47 30" fill="none" xmlns="http://www.w3.org/2000/svg">
<path fill-rule="evenodd" clip-rule="evenodd" d="M18.9679 13.6185C18.9679 13.6185 23.4139 13.2807 23.4139 7.9608C23.4139 2.64528 20.3985 0.0249696 15.7894 0.0249696L0 0V29.3756H16.1566C16.1566 29.3756 24.2349 29.6312 24.2349 20.5629C24.2349 20.5629 24.8283 13.6185 18.9679 13.6185ZM5.87513 4.40635H13.9534C13.9534 4.40635 16.7177 4.45188 16.7177 8.03571C16.7177 11.7503 13.9534 11.7503 13.9534 11.7503H5.87513V4.40635ZM14.6878 24.9693H5.87513V16.1566H14.6878C14.6878 16.1566 19.0942 16.2021 19.0942 20.5629C19.0942 24.9238 15.3223 24.9693 14.6878 24.9693ZM36.7183 7.34497C25.6833 7.34497 25.7024 18.3608 25.7024 18.3608C25.7024 18.3608 24.968 29.3767 36.7183 29.3767C36.7183 29.3767 46.9998 29.3767 46.9998 20.564H41.1246C41.1246 20.564 41.1246 24.9704 36.7183 24.9704C36.7183 24.9704 32.312 24.9704 32.312 19.0952H46.9998C46.9998 16.1577 46.9998 7.34497 36.7183 7.34497ZM32.312 16.1577C32.312 16.1577 32.215 11.7513 36.7183 11.7513C41.2201 11.7513 41.1246 16.1577 41.1246 16.1577H32.312ZM30.8436 2.93758H42.5938V5.87514H30.8436V2.93758Z" fill="#FFF9F9"/>
</svg>
