<svg width="45" height="45" viewBox="0 0 45 45" fill="none" xmlns="http://www.w3.org/2000/svg">
<path d="M1.31577 22.8573L1.16539 22.7816C0.827054 22.5923 0.563901 22.3083 0.375934 21.9487C0.11278 21.4565 0 21.0022 0 20.529L0.0375934 20.2829C0.0375934 19.9043 0.131577 19.5636 0.300747 19.2418L0.451121 18.9578C0.526307 18.8064 0.639087 18.6739 0.733071 18.5414C0.845851 18.4089 0.864648 18.2385 0.827054 18.0871L0.733071 17.7842C0.620291 17.4056 0.545104 17.027 0.545104 16.6484L0.488714 16.4213C0.488714 16.0048 0.601494 15.5884 0.864648 15.2855L1.05261 15.0394C1.18419 14.8501 1.39095 14.7366 1.61652 14.6608C1.80448 14.6041 1.93606 14.4148 1.95486 14.1876L1.99245 13.544C1.99245 13.0329 2.23681 12.5597 2.61274 12.2189L3.06386 11.8782C3.15784 11.7836 3.25183 11.6889 3.32701 11.5375C3.421 11.4239 3.43979 11.2725 3.421 11.1589C3.3834 10.9696 3.421 10.9128 3.51498 10.8939C3.81573 11.0075 4.00369 10.9696 4.13527 10.8182L4.37963 10.4964L5.05631 9.73919C5.24428 9.5499 5.31946 9.20917 5.20668 8.94416L4.98112 8.45199C4.94353 8.33842 4.98112 8.20591 5.07511 8.16805C5.31946 8.16805 5.48863 8.2627 5.56382 8.41413L5.63901 8.54664C5.75179 8.77379 6.01494 8.88737 6.20291 8.79272C6.61643 8.64129 6.95477 8.60343 7.27432 8.60343H7.87581C8.28934 8.60343 8.62768 8.31949 8.70287 7.88411C8.77805 7.35408 8.96602 6.93764 9.22917 6.6537C9.51112 6.3319 9.83067 6.08581 10.2066 5.89652C10.6953 5.63151 10.9961 5.25292 11.09 4.76075C11.2216 4.15501 11.5412 3.71963 11.9735 3.43569L13.402 2.62173L13.8156 2.37564C14.0599 2.22421 14.2855 2.03491 14.4734 1.80776L14.8494 1.35345C15.0373 1.16416 15.2253 1.03165 15.4509 0.974866C15.6388 0.918078 15.902 0.880219 16.1276 0.899148L16.8794 0.955936C17.2554 0.955936 17.5561 1.05058 17.8569 1.18309L18.0448 1.27774C18.2328 1.35345 18.4208 1.3156 18.5147 1.18309L18.6839 1.08844L19.4922 0.236618C19.6801 0.0473236 19.9057 -0.0283941 20.15 0.00946472C20.3944 0.0473236 20.6388 0.141971 20.8643 0.255547C21.2027 0.444842 21.4846 0.520559 21.8042 0.520559H21.9921C22.4057 0.520559 22.8192 0.577348 23.2327 0.671995L23.5147 0.747713C23.7966 0.82343 24.0786 0.709854 24.2665 0.482701C24.3229 0.388053 24.4545 0.369124 24.5297 0.444842C24.5861 0.482701 24.6049 0.520559 24.6237 0.577348C24.6613 0.955936 24.8868 1.23988 25.1876 1.33453L25.4883 1.42917C25.8079 1.52382 26.0898 1.73204 26.2778 1.99706C26.4657 2.281 26.6913 2.56494 26.9544 2.75423L27.1424 2.94353C27.3304 3.13282 27.5935 3.20854 27.8567 3.18961H28.9657C29.4168 3.18961 29.8491 3.26533 30.2815 3.45462C30.695 3.64392 31.1273 3.68177 31.522 3.53034C31.9356 3.39783 32.3679 3.34104 32.8002 3.39783L33.6085 3.53034C33.9844 3.5682 34.3603 3.75749 34.5859 4.04143L34.6799 4.13608C34.8679 4.32538 35.0558 4.57146 35.2438 4.83647C35.3566 5.08255 35.6197 5.21506 35.8829 5.21506H37.0483C37.3302 5.21506 37.6122 5.27185 37.8377 5.40435C38.0821 5.59365 38.2889 5.78294 38.4768 5.97224L38.6648 6.21832C38.8903 6.48333 39.0031 6.84299 38.9843 7.22158C38.9843 7.52445 39.2099 7.78946 39.5106 7.78946L39.8866 7.82732C40.1497 7.82732 40.3753 8.01661 40.5069 8.2627L40.6948 8.64129L41.1835 9.73919C41.2587 9.92849 41.2775 10.1178 41.2587 10.2692C41.2587 10.4585 41.3151 10.6099 41.4467 10.6857L41.6347 10.8182C41.879 11.0075 42.0106 11.2914 41.973 11.6132L41.8414 12.5029L41.8038 12.8815C41.7662 13.0708 41.8602 13.3169 42.0294 13.4494C42.3113 13.6387 42.4429 13.8847 42.4617 14.1687V14.5473C42.4617 14.7366 42.4241 14.9637 42.2738 15.1152C42.161 15.2666 42.0858 15.4559 42.0858 15.683L42.1422 16.1184C42.1422 16.4213 42.3301 16.6863 42.5181 16.8756C42.7813 17.0649 42.9316 17.3678 42.9692 17.6706C43.0444 18.1439 43.0632 18.5225 43.0632 18.901V19.3364C43.0632 19.4879 43.0632 19.6393 43.1196 19.7907C43.1572 19.9232 43.2512 20.0557 43.364 20.1315L43.7399 20.4154C44.1158 20.6615 44.379 20.9833 44.5294 21.4187C44.7173 21.8351 44.7737 22.2705 44.7737 22.7059V22.8573C44.7737 23.198 44.7361 23.5577 44.6233 23.8795C44.5294 24.2202 44.5482 24.542 44.6797 24.826C44.8301 25.091 44.9241 25.3938 44.9617 25.7156C45.0369 26.0942 44.9993 26.4728 44.8677 26.7757L44.8301 26.9082C44.7361 27.1353 44.5857 27.3436 44.3978 27.5139C44.2098 27.7032 44.0218 27.8168 43.9091 27.9493C43.7963 28.0629 43.7211 28.2522 43.7775 28.4225L43.8339 28.6876C43.9279 29.0661 43.9279 29.4447 43.8339 29.7855V29.9369C43.7587 30.2208 43.6459 30.4669 43.5331 30.6941C43.4016 30.9402 43.2136 31.1295 42.9692 31.262L42.6873 31.4513C42.5557 31.527 42.4617 31.6973 42.4617 31.8677C42.4617 32.057 42.3865 32.2463 42.2738 32.3599L41.9918 32.7385C41.8038 32.9845 41.5595 33.1928 41.2963 33.3063C41.0332 33.4956 40.8076 33.6849 40.6384 33.8742C40.4505 34.1014 40.3001 34.3664 40.2249 34.6314C40.1497 34.9721 39.8866 35.1614 39.6046 35.1614H38.5896C38.3264 35.1614 38.0821 35.3507 37.9693 35.5779C37.8377 35.8807 37.7062 36.089 37.537 36.2783C37.349 36.4676 37.2362 36.6947 37.1611 36.9597C37.1235 37.1869 36.9355 37.3383 36.7475 37.2626C36.5032 37.149 36.2588 37.2626 36.146 37.4519C35.9205 37.8305 35.6949 38.1144 35.4506 38.3605L35.319 38.4741C35.0746 38.6634 34.7551 38.8148 34.4731 38.8148C34.1348 38.8148 33.9656 38.9662 33.9092 39.1934C33.8528 39.3827 33.8152 39.6288 33.7964 39.837C33.7589 40.0641 33.6837 40.2724 33.6085 40.4617L33.5145 40.5752C33.3265 40.8592 33.1762 41.1431 32.9882 41.3892L32.913 41.5028C32.6686 41.8246 32.3491 42.0707 31.9732 42.1653C31.522 42.3167 31.1273 42.3546 30.7326 42.3546H30.4694C30.2815 42.3546 30.0935 42.4682 29.9619 42.6575L29.8491 42.8468L29.7364 43.0739L29.492 43.4904C29.304 43.8311 29.0221 44.0583 28.6462 44.1718C28.2702 44.2665 27.8379 44.3043 27.4432 44.2854L27.1424 44.2476C26.8793 44.2476 26.6349 44.1718 26.3905 44.0583C26.2026 43.9825 25.9394 44.0583 25.8266 44.2476C25.6387 44.5126 25.4131 44.664 25.1688 44.7397L24.6049 44.929C24.2289 45.0237 23.8154 45.0237 23.4207 44.929L23.1199 44.8344C22.932 44.8344 22.744 44.7397 22.5936 44.6451C22.4057 44.5504 22.2177 44.5126 22.0297 44.5315L21.7854 44.5694C21.4094 44.6072 21.0711 44.5694 20.7327 44.4747L20.2252 44.3611C19.9997 44.2854 19.7929 44.134 19.6613 43.9257C19.5674 43.7365 19.3606 43.585 19.0974 43.5472H18.4959C18.12 43.4904 17.7817 43.3579 17.5561 43.0739L16.8042 42.3546L16.5411 42.1275L16.1276 41.8246L15.8832 41.6353C15.6013 41.446 15.2629 41.2946 14.9058 41.2567L13.778 41.0674C13.6652 41.0674 13.59 41.0296 13.4772 41.0106L13.0449 40.916C12.8569 40.8781 12.669 40.7267 12.5374 40.5374C12.4246 40.3481 12.2178 40.2724 12.0299 40.3481C11.6539 40.4995 11.3532 40.5374 11.0525 40.5942H10.7893C10.3006 40.632 9.84946 40.5563 9.39834 40.3481C8.94722 40.1588 8.64648 39.8749 8.36453 39.5152C8.13897 39.1934 7.80063 38.9473 7.3871 38.8716L6.86079 38.758C6.48486 38.6823 6.10892 38.5309 5.77058 38.3037C5.39465 38.0387 5.20668 37.7926 5.05631 37.4897C4.90594 37.2058 4.81195 36.884 4.79316 36.5433V36.3918C4.75556 36.0132 4.49241 35.6725 4.13527 35.5779C3.70295 35.4454 3.3834 35.2561 3.10145 35.01C2.8383 34.7639 2.68793 34.4042 2.68793 34.0257L2.72552 33.1928C2.72552 32.871 2.63154 32.587 2.40598 32.3788C2.18042 32.1516 2.03004 31.8677 2.03004 31.5648L1.97365 30.8834C1.93606 30.3912 1.84208 29.899 1.7293 29.4069C1.61652 28.9715 1.78569 28.5361 2.14282 28.3279L2.2744 28.2333C2.46237 28.1007 2.53755 27.8547 2.42477 27.6275L2.2744 27.4382C2.08643 27.2489 1.89847 27.1164 1.7105 27.0596C1.56013 27.0218 1.52253 26.8703 1.52253 26.7757L1.7105 26.5485C1.82328 26.416 1.80448 26.2078 1.7105 26.0942C1.56013 25.9428 1.48494 25.7535 1.46614 25.5642L1.42855 24.2391C1.42855 23.9741 1.46614 23.7091 1.54133 23.4441C1.61652 23.217 1.54133 22.9519 1.31577 22.8384V22.8573ZM19.9245 20.3586C20.0561 20.2261 20.0373 19.98 19.9245 19.8854C19.7365 19.7339 19.6049 19.5636 19.4922 19.3743L19.3042 19.0714C19.1726 18.8253 19.0034 18.6171 18.8155 18.4278L18.7779 18.3899C18.5899 18.2385 18.4583 18.0492 18.3456 17.8221C18.2516 17.6328 18.2516 17.4435 18.3456 17.2542L18.4583 17.0649C18.5711 16.8756 18.6463 16.6106 18.6463 16.3834V16.3077C18.6463 16.1184 18.5711 15.9291 18.4583 15.7398C18.3832 15.5884 18.308 15.3991 18.2704 15.2098V15.0962C18.214 14.8691 18.2704 14.623 18.4208 14.4337C18.5711 14.1876 18.6839 13.9605 18.7403 13.6765V13.6387C18.8155 13.4494 18.7779 13.2033 18.6651 13.014C18.5523 12.8247 18.5147 12.6354 18.5899 12.4082L18.7215 12.0297C18.8343 11.6889 19.0035 11.3861 19.229 11.121L19.4922 10.8371L19.6801 10.6099L19.7929 10.4964C19.9057 10.3828 19.9245 10.1935 19.8305 10.0421C19.7365 9.85277 19.6801 9.66348 19.7177 9.47418L19.7553 9.20917C19.8117 8.83058 19.9433 8.45199 20.1876 8.14912L20.2628 8.0734C20.5448 7.69481 20.9019 7.44873 21.3154 7.31623L21.823 7.12693C22.0485 7.05121 22.1989 6.80513 22.1989 6.55905C22.1989 6.25618 22.2929 5.99117 22.462 5.74508L22.556 5.65044C22.744 5.32864 22.9696 5.00684 23.1199 4.66611L23.2515 4.42002C23.2891 4.36323 23.3079 4.28752 23.3079 4.23073C23.3079 3.90893 23.1199 3.62499 22.8192 3.60606L21.9921 3.54927C21.5222 3.51141 21.0523 3.54927 20.6012 3.54927L19.0035 3.73856C18.7591 3.73856 18.5711 3.92786 18.5523 4.19287C18.5523 4.45788 18.3644 4.68504 18.1388 4.76075L17.4621 4.95005L17.2742 5.00684L16.7103 5.19613C16.2967 5.32864 15.9584 5.63151 15.7704 6.04795L15.62 6.29404C15.4321 6.71048 15.1125 7.05121 14.7178 7.2973C14.3419 7.54338 14.1539 7.9409 14.1163 8.3952V8.5845C14.0787 8.96309 13.9659 9.34168 13.7404 9.60669L13.6464 9.75812C13.496 9.94742 13.4584 10.1935 13.5524 10.4017C13.6464 10.6289 13.7028 10.875 13.684 11.121V12.1243C13.684 12.3893 13.496 12.6165 13.3081 12.6922C13.0449 12.7868 12.8757 12.9951 12.8005 13.2601L12.7066 13.6387C12.6314 14.0172 12.763 14.3958 13.0825 14.623C13.3832 14.8501 13.5712 15.1909 13.6464 15.6073V15.948C13.7028 16.3266 13.9095 16.7052 14.2479 16.8945C14.5862 17.1217 14.8494 17.4624 14.9998 17.841L15.0937 18.1439C15.2441 18.5603 15.5825 18.8064 15.9584 18.8443H16.0712C16.4095 18.8443 16.7103 19.0335 16.8982 19.3364C17.0862 19.6393 17.3869 19.8475 17.7253 19.9043L18.2516 20.0557C18.5711 20.1504 18.8719 20.3207 19.1162 20.5668L19.1538 20.6047C19.3418 20.7561 19.6425 20.7372 19.8117 20.529L19.9433 20.3775L19.9245 20.3586ZM22.0673 18.6171C22.2553 18.7307 22.4432 18.6739 22.5184 18.5035L22.5748 18.4089C22.7064 18.1439 22.8756 17.8788 23.0635 17.6517L23.4395 17.0838C23.4959 17.0838 23.5147 17.046 23.5335 17.0081L23.9846 16.4024C24.1725 16.2131 24.3981 16.0806 24.6613 16.0806C24.9056 16.0806 25.1124 15.948 25.2252 15.702C25.3003 15.437 25.4131 15.1909 25.6387 14.9826L25.7327 14.8691C25.9206 14.6798 26.1086 14.5851 26.2966 14.4905C26.5409 14.4526 26.7665 14.4148 26.992 14.4148H27.5559C27.7815 14.4148 27.9695 14.3201 28.0823 14.1308C28.195 13.9415 28.3642 13.809 28.5522 13.7144L28.7401 13.6387C29.0409 13.5062 29.3792 13.4115 29.7176 13.3736L30.0935 13.3358C30.3191 13.3358 30.5634 13.3358 30.789 13.4683C30.9769 13.6008 31.2213 13.5819 31.4093 13.4304L31.5408 13.3547C31.8228 13.1654 32.1423 13.014 32.4807 12.9761H32.5183C32.8942 12.9004 33.2325 12.9004 33.6085 12.9193H33.7964C34.1724 12.9761 34.4919 13.1086 34.7363 13.3926L34.7927 13.4683C34.9806 13.6576 35.2814 13.809 35.5445 13.809H35.8641C35.9581 13.809 36.052 13.7712 36.1084 13.6765C36.1648 13.6197 36.2588 13.5629 36.3528 13.5629H36.5408C36.8039 13.5629 37.0483 13.6387 37.2926 13.7144L37.6122 13.8469C37.9129 13.9415 38.2325 14.0362 38.552 14.074H38.7776C38.9279 14.074 39.0219 13.9794 39.0219 13.8469C39.0219 13.6576 38.9843 13.4683 38.8903 13.3169L38.7588 13.014C38.6084 12.7679 38.4956 12.5029 38.3828 12.2568L38.3452 12.1622C38.2513 11.9729 38.2513 11.7836 38.3452 11.5943V11.4996C38.3828 11.3482 38.3077 11.1778 38.1573 11.121H38.0069C37.7062 11.0264 37.443 10.856 37.255 10.6099L37.0671 10.4207C36.8791 10.2314 36.7663 9.94742 36.6911 9.66348C36.5972 9.41739 36.3904 9.2281 36.1272 9.2281H35.3378C35.0558 9.19024 34.8115 9.03881 34.6423 8.81165L34.5671 8.717C34.4355 8.52771 34.3228 8.30056 34.2476 8.0734C34.1536 7.88411 33.9468 7.77053 33.7589 7.82732L33.5333 7.90304C33.1574 8.03555 32.7814 8.09233 32.4055 8.05447L32.1047 8.01662C31.7852 8.01662 31.4845 7.88411 31.2401 7.69482L31.0521 7.56231C30.9018 7.44873 30.7514 7.37301 30.5822 7.2973C30.3942 7.22158 30.2439 7.25944 30.1311 7.39194L30.0371 7.50552C29.8491 7.69482 29.586 7.84625 29.3228 7.88411L28.3078 7.9409C28.1198 7.9409 27.9319 8.03554 27.8003 8.16805C27.6499 8.30056 27.4808 8.3952 27.2928 8.43306H27.2552C27.0672 8.43306 26.8793 8.56557 26.6913 8.69807V8.73593C26.5033 8.92523 26.259 9.01988 26.0146 9.01988L25.9394 9.05773C25.7139 9.05773 25.4883 9.05773 25.2627 9.11452H25.0372C24.7176 9.17131 24.4733 9.43632 24.3981 9.77705L24.3229 10.2124C24.2665 10.5153 24.1349 10.7803 23.947 11.0264C23.759 11.2535 23.5335 11.405 23.2515 11.405H22.9696H22.932C22.744 11.4428 22.556 11.6511 22.5936 11.8782C22.6312 12.2 22.5936 12.484 22.5372 12.7679L22.462 13.0897C22.3869 13.3736 22.1989 13.6008 21.9545 13.6954L21.8418 13.7522H21.8042C21.6914 13.828 21.6162 13.9983 21.7102 14.1308C21.823 14.3201 21.8605 14.5094 21.8418 14.6987L21.7854 15.3044C21.7854 15.5316 21.6914 15.7398 21.5974 15.9291C21.4846 16.1184 21.4846 16.3077 21.5598 16.497L21.7478 16.9135C21.8418 17.1027 21.8605 17.292 21.8042 17.5192C21.7478 17.7085 21.7102 17.8978 21.729 18.0871C21.729 18.2764 21.8418 18.4657 21.9921 18.5414L22.0297 18.5792L22.0673 18.6171ZM36.9167 32.3031C37.1047 32.4924 37.3866 32.5681 37.6122 32.4167L37.9881 32.1706C38.1761 32.0381 38.3264 31.8488 38.4016 31.6027V31.5648L38.5896 30.9969L38.7024 30.8077L38.7776 30.6184L38.8528 30.4859C38.9279 30.3344 39.0407 30.2208 39.2287 30.1641L39.3039 30.1262C39.4542 30.0883 39.5482 29.9369 39.5482 29.7855C39.5482 29.5962 39.6422 29.4447 39.7362 29.3122L39.8866 29.1797L40.2625 28.6876V28.6497C40.3753 28.4983 40.4505 28.3279 40.4881 28.1386C40.5257 27.9493 40.4881 27.76 40.4129 27.5707L40.3753 27.495C40.3001 27.3057 40.2625 27.1732 40.2437 27.0028L40.1873 26.4728L40.1309 25.9049C40.1309 25.7156 40.2061 25.5263 40.3189 25.337C40.4505 25.1856 40.5445 24.9963 40.6196 24.807V24.7313L40.6572 24.6934C40.6948 24.5042 40.6008 24.3149 40.4317 24.3149C40.2437 24.2202 40.0557 24.0688 39.9994 23.8416L39.943 23.728C39.849 23.3873 39.7926 23.0466 39.7926 22.7059L39.8302 21.7594V21.7026C39.8302 21.3808 39.567 21.1347 39.2663 21.1347H39.2287C38.8528 21.1347 38.552 21.0211 38.2889 20.7561L38.1385 20.5668L37.7625 20.1315L37.2738 19.5636C37.0859 19.2986 36.8979 19.0714 36.6535 18.8443C36.4656 18.655 36.1836 18.4657 35.9017 18.4278L35.5257 18.371C35.3378 18.3332 35.0934 18.2385 34.8867 18.106C34.7363 17.9924 34.5107 18.0303 34.3603 18.1817L34.116 18.4467L34.0032 18.5225C33.8716 18.5603 33.7401 18.4846 33.6837 18.3332C33.6085 18.106 33.6085 17.841 33.7213 17.6138V17.5003C33.7213 17.3678 33.6085 17.2731 33.4957 17.311H33.1949C32.8566 17.311 32.5183 17.2731 32.1987 17.1217L32.0108 17.046C31.8228 16.9513 31.5972 16.8945 31.3905 16.8945C31.2025 16.8945 31.0145 16.9324 30.8266 17.046L30.7514 17.1027C30.5258 17.2542 30.2627 17.3299 29.9995 17.3488H29.3792C29.0973 17.3488 28.8153 17.4435 28.6274 17.5949C28.383 17.7463 28.1198 17.841 27.8379 17.8978L27.3304 17.9735C27.1048 18.0303 26.8605 18.1249 26.6537 18.2953C26.4657 18.4846 26.2026 18.5982 25.9582 18.6739L25.8642 18.7117C25.5635 18.8064 25.3003 18.9957 25.1124 19.2796L24.8868 19.5068C24.7552 19.6961 24.7552 19.9232 24.8868 20.1125C24.9996 20.3018 25.2252 20.3586 25.4507 20.3018L25.7327 20.1882C25.883 20.1315 26.0522 20.1882 26.1838 20.264C26.2966 20.3586 26.4657 20.4154 26.6349 20.3965L27.1048 20.3397C27.368 20.3397 27.6311 20.3397 27.8943 20.4154C28.1762 20.51 28.4206 20.6047 28.6462 20.794C28.8717 20.9833 29.1161 21.059 29.398 21.0969C29.68 21.1347 29.9619 21.1915 30.2251 21.2861L30.413 21.324C30.601 21.3808 30.7514 21.5133 30.8642 21.7026C30.9581 21.854 31.0521 22.0812 31.0521 22.2705V22.3273C31.0521 22.5544 31.2401 22.7059 31.4281 22.7059H31.5408C31.8416 22.7059 32.1611 22.7437 32.4807 22.8384L32.6123 22.8952C32.8002 22.9709 32.9882 23.0844 33.1198 23.2737C33.2701 23.463 33.3641 23.6523 33.4205 23.8416L33.4769 24.1066C33.5333 24.3906 33.5521 24.6745 33.5521 24.9774V25.072C33.5521 25.2613 33.6837 25.4506 33.8904 25.5263C34.0784 25.5642 34.304 25.6399 34.5107 25.7535L34.6047 25.7914C34.8491 25.9428 35.0934 26.1321 35.2814 26.3592L35.3754 26.4917C35.6197 26.7757 35.7513 27.1353 35.7513 27.495V27.6275C35.7513 27.9115 35.6949 28.1954 35.6009 28.4604C35.5257 28.6876 35.6009 28.9526 35.8453 29.0283L35.9769 29.1229C36.2588 29.2365 36.5032 29.4447 36.6911 29.6908C36.8791 29.9748 36.9543 30.2966 36.9543 30.6373V31.2052C36.9167 31.3945 36.8603 31.5459 36.7663 31.6784C36.6723 31.8109 36.6723 32.0002 36.7663 32.1327L36.8791 32.322L36.9167 32.3031ZM24.8868 22.6112H24.8492C24.774 22.6112 24.7364 22.7059 24.7552 22.8005L24.8304 23.1791C24.9056 23.482 24.9432 23.7848 24.9808 24.0877C25.0184 24.3906 25.1688 24.6556 25.3943 24.8449H25.4695C25.7515 25.072 25.9206 25.4128 25.9394 25.7535V26.7C25.9018 26.8893 25.9394 27.0786 26.0522 27.23L26.1462 27.3246C26.3342 27.5518 26.4093 27.8168 26.4281 28.0818L26.4845 29.1229C26.4845 29.369 26.3342 29.5772 26.1086 29.6151L25.9206 29.653C25.7891 29.653 25.7327 29.8044 25.7327 29.9369C25.7327 30.0883 25.7891 30.2587 25.8454 30.4101V30.448C25.9018 30.6373 25.9206 30.8266 25.9018 31.0159L25.8266 31.527C25.7515 31.9056 25.6387 32.2463 25.4507 32.587L25.3191 32.8142C25.2252 33.0035 25.0936 33.117 24.9432 33.1928C24.7552 33.2685 24.6237 33.4199 24.5673 33.6092L24.4169 34.2907C24.3229 34.6693 24.1537 35.0478 23.9282 35.4264H23.8906C23.665 35.7293 23.3831 35.9943 23.0447 36.1836L22.8192 36.335L22.2553 36.619C22.0673 36.6947 21.9545 36.8651 21.9169 37.0733L21.823 37.698C21.7666 38.0766 21.635 38.3984 21.3718 38.6444L21.1275 38.9284L20.8455 39.2123L20.5636 39.5152C20.338 39.7802 19.9997 39.8938 19.6237 39.837L18.9471 39.7045L18.3268 39.6288H18.1576C18.0824 39.7045 18.0636 39.8181 18.12 39.9316C18.2516 40.1588 18.4583 40.3102 18.6839 40.3102L19.0974 40.3859C19.2854 40.3859 19.511 40.4806 19.6989 40.5752C19.8869 40.7077 20.0749 40.8024 20.3004 40.8592H20.338C20.5824 40.9538 20.8455 40.9728 21.0899 40.9538L21.3718 40.916C21.6914 40.8781 21.9921 40.916 22.2553 41.0295L22.4808 41.1053C22.5748 41.1431 22.7252 41.1053 22.8192 41.0106C22.932 40.897 23.0447 40.8213 23.1951 40.7645L23.3455 40.7267C23.5898 40.651 23.8342 40.6131 24.0974 40.6131H24.2477C24.4733 40.6131 24.6801 40.651 24.868 40.7645L24.9432 40.8024C25.0748 40.8592 25.2252 40.8024 25.3191 40.6888C25.3755 40.5563 25.5071 40.4238 25.6387 40.3102L26.1086 39.9884L26.4093 39.7991L26.5597 39.7045C26.7477 39.572 27.0108 39.5152 27.2364 39.5152L27.9131 39.4584C28.1762 39.4205 28.4018 39.2313 28.477 38.9662C28.5522 38.6823 28.6649 38.3984 28.8529 38.1523C29.0409 37.9062 29.2288 37.698 29.4168 37.5087C29.6612 37.3194 29.9055 37.2247 30.1687 37.2058H30.3191C30.6198 37.149 30.8454 36.8651 30.8266 36.5622V36.5243V35.2939C30.8642 35.1046 30.9394 34.8586 31.0521 34.6693L31.4281 34.1014L31.5784 33.9121C31.6912 33.8174 31.7664 33.6849 31.898 33.5335L32.0859 33.2874C32.1987 33.0981 32.1987 32.852 32.0484 32.6817C31.8604 32.4924 31.7664 32.2274 31.7288 31.9623V31.8866C31.6912 31.5838 31.6912 31.262 31.7852 30.9402V30.8455C31.8792 30.5994 32.0108 30.3533 32.1611 30.1262C32.3115 29.9369 32.2927 29.6719 32.1047 29.5205L31.7852 29.2365C31.522 29.0094 31.3717 28.6686 31.3341 28.3279L31.2965 27.9493C31.2965 27.8357 31.2965 27.7032 31.2589 27.5707L31.2213 27.2868C31.1837 26.965 30.9957 26.7189 30.7326 26.5296L30.601 26.4917C30.413 26.3782 30.2251 26.2078 30.0747 25.9806C29.9243 25.7914 29.8491 25.5263 29.7928 25.2613L29.7364 24.9395C29.7364 24.826 29.6612 24.7502 29.5484 24.6934L29.2476 24.5988L28.6462 24.4095C28.4582 24.3716 28.2702 24.2202 28.1386 24.0877H28.101C27.9883 23.9363 27.8003 23.9363 27.6875 24.0498L27.4996 24.2391C27.462 24.2959 27.4244 24.3149 27.368 24.2959C27.2552 24.2959 27.18 24.2013 27.2176 24.1066C27.2552 23.8038 27.1424 23.5009 26.8981 23.3116L26.6537 23.1223L26.0898 22.7437C25.9394 22.6869 25.7139 22.7437 25.6387 22.933L25.5635 23.0466C25.5635 23.0844 25.5071 23.1034 25.4883 23.1223C25.4131 23.1223 25.3003 23.1223 25.3003 23.0277L25.244 22.933C25.1876 22.8194 25.056 22.7437 24.9432 22.7059L24.8868 22.6112ZM22.6312 24.5042L22.5372 24.4095C22.4432 24.3338 22.3493 24.3527 22.2553 24.4474C22.1237 24.6745 22.0109 24.9206 21.9545 25.1667V25.2045C21.8981 25.4506 21.6726 25.621 21.447 25.5831H21.2591H21.2215C20.9583 25.5831 20.7515 25.8103 20.7515 26.0753C20.7515 26.416 20.6388 26.7568 20.432 27.0218L20.3192 27.1353C20.1313 27.3814 19.8493 27.5518 19.5674 27.6464L19.417 27.6843C19.229 27.7411 19.0786 27.8736 19.041 28.1007C19.041 28.29 18.9283 28.4793 18.7779 28.6308L18.5899 28.7822C18.3644 29.0283 18.026 29.1608 17.6877 29.1987L16.7478 29.2933C16.4471 29.2933 16.1839 29.4826 15.996 29.7665C15.808 30.0505 15.5261 30.2398 15.2441 30.2776L14.8306 30.3155C14.5298 30.3533 14.2103 30.3533 13.8908 30.2776L13.7028 30.2398L13.1953 30.1073C13.0073 30.0505 12.8569 30.1073 12.7442 30.2398L12.5562 30.4859C12.3118 30.7698 11.9547 30.9023 11.6164 30.8644L10.3946 30.713C10.2066 30.713 10.0562 30.6184 9.88706 30.5237C9.69909 30.4101 9.56751 30.2776 9.43594 30.1451L8.96602 29.5772C8.90963 29.5394 8.81565 29.5205 8.72166 29.5394L8.45851 29.653L7.4059 29.918C7.21793 29.9748 6.97357 29.918 6.7856 29.8044C6.59764 29.653 6.37208 29.6151 6.14652 29.6151H5.90216C5.6766 29.6719 5.52623 29.918 5.60141 30.1451L5.6766 30.5237C5.73299 30.713 5.71419 30.9402 5.62021 31.1295C5.52623 31.3187 5.54502 31.508 5.6766 31.6973L5.78938 31.8488C5.93975 32.0759 6.16531 32.2652 6.35328 32.4545C6.54125 32.6438 6.72921 32.8331 6.87959 33.0792L7.16154 33.5903C7.31191 33.8553 7.53747 34.0067 7.83822 34.0067C8.12017 34.0067 8.40212 34.1014 8.62768 34.2907L9.19158 34.8207C9.34195 34.9532 9.56751 34.9721 9.71789 34.8586L9.81187 34.8207C9.92465 34.8207 9.99984 34.8964 9.99984 35.01V35.1046C9.99984 35.3507 10.1878 35.5779 10.4322 35.6725L11.278 35.8618C11.5788 35.9565 11.8795 36.0511 12.1615 36.2404H12.3118C12.4622 36.2404 12.5938 36.1079 12.575 35.9375V35.275C12.575 35.0857 12.6502 34.8964 12.8005 34.8207L12.8945 34.7828C12.9885 34.8207 13.0825 34.8964 13.0449 34.9721V35.2939C13.0449 35.54 13.1201 35.7672 13.2893 35.9375C13.4772 36.1268 13.7216 36.1647 13.9283 36.089C14.1539 35.9943 14.3795 35.9754 14.6238 35.9943L15.3193 36.0322C15.6576 36.07 15.9772 36.0322 16.2591 35.8997C16.5975 35.7861 16.8794 35.6347 17.1426 35.4264L17.2554 35.3507L17.8193 34.8396C18.0072 34.6503 18.2516 34.5557 18.4771 34.5557H19.229C19.6049 34.5178 19.9433 34.1771 19.9809 33.7985L20.0561 33.4199C20.0561 33.1738 20.1688 32.9467 20.338 32.7574C20.526 32.5681 20.714 32.4545 20.9019 32.3788L21.1275 32.2842C21.447 32.1516 21.6914 31.8677 21.8042 31.527L21.9169 31.0727C22.0109 30.6941 22.1989 30.3155 22.4808 30.0694L22.5184 30.0315C22.744 29.8423 22.7816 29.4637 22.6312 29.1987L22.5748 29.0661C22.4432 28.8769 22.4244 28.5929 22.5184 28.3468C22.6124 28.0818 22.7064 27.8547 22.8568 27.6275L23.0447 27.3625C23.1199 27.2111 23.1199 26.9839 23.0071 26.8514C22.8944 26.7 22.8192 26.5107 22.8192 26.3214L22.7816 26.0564V25.4128C22.8192 25.2235 22.7816 24.9774 22.7252 24.7881L22.65 24.5609L22.6312 24.5042ZM19.9433 23.0655V23.0087C19.9433 22.8194 19.8305 22.7059 19.6801 22.7059H19.1914C19.0035 22.7437 18.8155 22.7437 18.6651 22.7059H17.8193C17.3869 22.7059 16.9734 22.6301 16.5599 22.5166L16.1088 22.403L15.7328 22.2894L14.887 22.0055C14.4359 21.873 14.0975 21.5701 13.8908 21.1536L13.7968 20.9643C13.6652 20.6804 13.3832 20.529 13.1013 20.5858C12.7817 20.5858 12.4622 20.5858 12.1615 20.4343L11.9359 20.3397C11.5036 20.1504 11.184 19.7718 11.184 19.2607L11.1088 18.7496C11.0525 18.4846 10.8833 18.2385 10.6577 18.1439C10.3946 18.0303 10.1502 17.8788 9.90585 17.7085L9.81187 17.6517C9.52992 17.4245 9.28556 17.1217 9.15399 16.762L9.11639 16.6484C9.02241 16.3456 9.00361 16.0238 9.0788 15.702L9.11639 15.5884C9.19158 15.3423 9.21038 15.0962 9.21038 14.8312C9.21038 14.6041 9.11639 14.3769 8.94722 14.2065L8.68407 13.9605C8.38332 13.7144 8.19536 13.3547 8.17656 12.9572C8.13897 12.5407 8.13897 12.1432 8.21415 11.7457V11.6889V11.6321C8.21415 11.405 8.02619 11.2535 7.83822 11.2535H7.78183C7.53747 11.2535 7.33071 11.405 7.21793 11.6321C7.12394 11.8971 6.97357 12.1054 6.8044 12.3136L6.72921 12.4082L6.35328 12.7868L6.16531 12.9761C5.97735 13.1654 5.86457 13.4494 5.82697 13.7333C5.78938 14.0172 5.71419 14.3012 5.60141 14.5662L5.56382 14.6608C5.46984 14.888 5.31946 15.0962 5.1315 15.2287C4.94353 15.3802 4.81195 15.6073 4.81195 15.8345L4.77436 16.7052C4.77436 17.0838 4.71797 17.4624 4.58639 17.841L4.5488 17.9924C4.45482 18.2385 4.5488 18.5035 4.77436 18.6171L5.56382 18.9578L5.63901 18.9957C5.6954 18.9957 5.71419 19.0335 5.73299 19.0903C5.78938 19.1661 5.73299 19.2796 5.6766 19.2796L5.48863 19.3743C5.37585 19.4121 5.30067 19.5257 5.26307 19.6582L5.22548 19.8475V19.8854L5.03751 20.9454C4.99992 21.0969 4.99992 21.2672 4.99992 21.4376C4.99992 21.589 5.0939 21.7215 5.22548 21.7783L5.63901 21.9676C5.82697 22.0812 6.05253 22.2137 6.20291 22.3462L6.39087 22.4976C6.44726 22.5733 6.54125 22.6491 6.61643 22.6869L6.69162 22.7626C6.8232 22.8762 6.91718 23.0277 6.95477 23.198L7.14274 24.0498C7.14274 24.277 7.33071 24.4663 7.51868 24.5231L7.81942 24.6177C7.81942 24.6177 7.87581 24.6177 7.91341 24.6556L8.28934 24.7692C8.59009 24.8638 8.85324 25.0342 9.0788 25.2613C9.30436 25.4506 9.52992 25.6967 9.71789 25.9617L9.79307 26.0374C9.94345 26.2267 10.169 26.3214 10.3946 26.2646C10.6201 26.2078 10.8645 26.1889 11.1088 26.1889H11.3908C11.5788 26.1889 11.8231 26.2457 12.0299 26.3782C12.2178 26.4917 12.4622 26.5675 12.6878 26.6621H12.7442C12.9697 26.7568 13.2141 26.7189 13.402 26.5864C13.59 26.435 13.8344 26.3592 14.0787 26.3592L14.9622 26.416C15.1501 26.416 15.3381 26.3782 15.4321 26.2267H15.4697L15.7892 25.9239L15.8832 25.8292C16.0336 25.6399 16.2591 25.5642 16.4847 25.5453H17.3305C17.5561 25.5453 17.7629 25.356 17.8569 25.1667C17.9508 24.9774 18.1388 24.826 18.3644 24.7881L18.7403 24.7124C18.8907 24.7124 19.0222 24.5799 19.0786 24.4095C19.135 24.2202 19.229 24.0688 19.3606 23.9552L19.6613 23.6523C19.8493 23.463 19.9433 23.2737 19.9809 23.0466L19.9433 23.0655Z" fill="#FFF9F9"/>
</svg>
