<svg width="168" height="236" viewBox="0 0 168 236" fill="none" xmlns="http://www.w3.org/2000/svg">
<path fill-rule="evenodd" clip-rule="evenodd" d="M4.72656 30.9219L2 0H32L29.2734 30.9219L16.9609 35L4.72656 30.9219ZM11.7188 9.99219H26.0781L26.4219 6.26562H7.58594L8.58594 17.6406H21.625L21.1562 22.5L16.9609 23.6328L12.7812 22.5L12.5078 19.5234H8.78125L9.25 25.4453L16.9609 27.5781H17.0469V27.5547L24.6953 25.4453L25.7578 13.8516H12.0391L11.7188 9.99219ZM44.968 4.34399V21H47.224V13.416H55.72V21H57.976V4.34399H55.72V11.352H47.224V4.34399H44.968ZM63.2813 11.568V21H65.4413V11.568H68.2493V9.60001H65.4413V4.82401H63.2813V9.60001H60.4733V11.568H63.2813ZM70.3653 9.60001V21H72.5252V14.088C72.5252 13.528 72.6533 13.048 72.9092 12.648C73.1653 12.248 73.5013 11.936 73.9172 11.712C74.3333 11.488 74.8052 11.376 75.3333 11.376C76.1172 11.376 76.7653 11.624 77.2773 12.12C77.8052 12.6 78.0692 13.264 78.0692 14.112V21H80.2292V14.088C80.2292 13.528 80.3572 13.048 80.6133 12.648C80.8693 12.248 81.2053 11.936 81.6212 11.712C82.0533 11.488 82.5333 11.376 83.0612 11.376C83.8293 11.376 84.4692 11.624 84.9813 12.12C85.5092 12.6 85.7733 13.264 85.7733 14.112V21H87.9572V13.68C87.9572 12.784 87.7573 12.016 87.3572 11.376C86.9733 10.736 86.4532 10.24 85.7972 9.888C85.1413 9.53601 84.3972 9.35999 83.5652 9.35999C82.7653 9.35999 82.0292 9.54401 81.3572 9.91199C80.6852 10.264 80.1332 10.76 79.7013 11.4L79.6833 11.4271C79.6735 11.41 79.6634 11.3929 79.6533 11.376C79.2852 10.736 78.7733 10.24 78.1172 9.888C77.4773 9.53601 76.7573 9.35999 75.9572 9.35999C75.1412 9.35999 74.4052 9.54401 73.7492 9.91199C73.2681 10.1702 72.8601 10.5059 72.5252 10.919V9.60001H70.3653ZM90.8965 3.86401V21H93.0565V3.86401H90.8965ZM62.04 185.24C61.08 185.24 60.232 185.056 59.496 184.688C58.776 184.304 58.184 183.792 57.72 183.152L59.304 181.688C59.608 182.136 59.984 182.48 60.432 182.72C60.896 182.96 61.408 183.08 61.968 183.08C62.528 183.08 63.024 182.96 63.456 182.72C63.888 182.48 64.224 182.128 64.464 181.664C64.72 181.184 64.848 180.6 64.848 179.912V168.344H67.104V179.792C67.104 180.896 66.88 181.856 66.432 182.672C66 183.488 65.4 184.12 64.632 184.568C63.88 185.016 63.016 185.24 62.04 185.24ZM75.3148 185.24C74.2748 185.24 73.3308 184.984 72.4828 184.472C71.6348 183.944 70.9628 183.232 70.4668 182.336C69.9868 181.44 69.7468 180.432 69.7468 179.312C69.7468 178.192 69.9868 177.184 70.4668 176.288C70.9628 175.392 71.6268 174.68 72.4588 174.152C73.3068 173.624 74.2588 173.36 75.3148 173.36C76.1788 173.36 76.9468 173.544 77.6188 173.912C78.218 174.219 78.714 174.634 79.1068 175.159V173.6H81.2908V185H79.1068V183.449C78.7269 183.972 78.2389 184.393 77.6428 184.712C76.9708 185.064 76.1948 185.24 75.3148 185.24ZM75.6748 183.2C76.7468 183.2 77.6108 182.84 78.2668 182.12C78.9228 181.384 79.2508 180.448 79.2508 179.312C79.2508 178.528 79.0988 177.848 78.7948 177.272C78.5068 176.68 78.0908 176.224 77.5468 175.904C77.0028 175.568 76.3708 175.4 75.6508 175.4C74.9308 175.4 74.2908 175.568 73.7308 175.904C73.1868 176.24 72.7548 176.704 72.4348 177.296C72.1308 177.872 71.9788 178.536 71.9788 179.288C71.9788 180.056 72.1308 180.736 72.4348 181.328C72.7548 181.904 73.1948 182.36 73.7548 182.696C74.3148 183.032 74.9548 183.2 75.6748 183.2ZM88.3476 185L83.1156 173.6H85.5156L89.0215 181.634L92.5476 173.6H94.8516L89.6196 185H88.3476ZM101.096 185.24C100.056 185.24 99.1121 184.984 98.2641 184.472C97.4161 183.944 96.744 183.232 96.2481 182.336C95.7681 181.44 95.5281 180.432 95.5281 179.312C95.5281 178.192 95.7681 177.184 96.2481 176.288C96.744 175.392 97.4081 174.68 98.2401 174.152C99.0881 173.624 100.04 173.36 101.096 173.36C101.96 173.36 102.728 173.544 103.4 173.912C103.999 174.219 104.495 174.634 104.888 175.159V173.6H107.072V185H104.888V183.449C104.508 183.972 104.02 184.393 103.424 184.712C102.752 185.064 101.976 185.24 101.096 185.24ZM101.456 183.2C102.528 183.2 103.392 182.84 104.048 182.12C104.704 181.384 105.032 180.448 105.032 179.312C105.032 178.528 104.88 177.848 104.576 177.272C104.288 176.68 103.872 176.224 103.328 175.904C102.784 175.568 102.152 175.4 101.432 175.4C100.712 175.4 100.072 175.568 99.5121 175.904C98.968 176.24 98.5361 176.704 98.2161 177.296C97.912 177.872 97.7601 178.536 97.7601 179.288C97.7601 180.056 97.912 180.736 98.2161 181.328C98.5361 181.904 98.9761 182.36 99.5361 182.696C100.096 183.032 100.736 183.2 101.456 183.2ZM112.017 185C111.457 184.824 110.937 184.584 110.457 184.28C109.977 183.96 109.561 183.584 109.209 183.152L110.601 181.76C111.017 182.272 111.497 182.656 112.041 182.912C112.585 183.152 113.193 183.272 113.865 183.272C114.537 183.272 115.057 183.16 115.425 182.936C115.793 182.696 115.977 182.368 115.977 181.952C115.977 181.536 115.825 181.216 115.521 180.992C115.233 180.752 114.857 180.56 114.393 180.416C113.929 180.256 113.433 180.104 112.905 179.96C112.393 179.8 111.905 179.6 111.441 179.36C110.977 179.12 110.593 178.792 110.289 178.376C110.001 177.96 109.857 177.408 109.857 176.72C109.857 176.032 110.025 175.44 110.361 174.944C110.697 174.432 111.161 174.04 111.753 173.768C112.361 173.496 113.089 173.36 113.937 173.36C114.833 173.36 115.625 173.52 116.313 173.84C117.017 174.144 117.593 174.608 118.041 175.232L116.649 176.624C116.329 176.208 115.929 175.888 115.449 175.664C114.985 175.44 114.457 175.328 113.865 175.328C113.241 175.328 112.761 175.44 112.425 175.664C112.105 175.872 111.945 176.168 111.945 176.552C111.945 176.936 112.089 177.232 112.377 177.44C112.665 177.648 113.041 177.824 113.505 177.968C113.985 178.112 114.481 178.264 114.993 178.424C115.505 178.568 115.993 178.768 116.457 179.024C116.921 179.28 117.297 179.624 117.585 180.056C117.889 180.488 118.041 181.056 118.041 181.76C118.041 182.832 117.657 183.68 116.889 184.304C116.137 184.928 115.121 185.24 113.841 185.24C113.201 185.24 112.593 185.16 112.017 185ZM125.667 185.24C124.547 185.24 123.531 184.976 122.619 184.448C121.723 183.92 121.011 183.208 120.483 182.312C119.971 181.4 119.715 180.392 119.715 179.288C119.715 178.168 119.971 177.16 120.483 176.264C121.011 175.368 121.723 174.664 122.619 174.152C123.531 173.624 124.547 173.36 125.667 173.36C126.547 173.36 127.363 173.528 128.115 173.864C128.867 174.184 129.515 174.656 130.059 175.28L128.619 176.72C128.267 176.304 127.835 175.992 127.323 175.784C126.827 175.56 126.275 175.448 125.667 175.448C124.947 175.448 124.307 175.616 123.747 175.952C123.187 176.272 122.747 176.72 122.427 177.296C122.107 177.872 121.947 178.536 121.947 179.288C121.947 180.04 122.107 180.704 122.427 181.28C122.747 181.856 123.187 182.312 123.747 182.648C124.307 182.984 124.947 183.152 125.667 183.152C126.275 183.152 126.827 183.048 127.323 182.84C127.835 182.616 128.275 182.296 128.643 181.88L130.059 183.32C129.531 183.928 128.883 184.4 128.115 184.736C127.363 185.072 126.547 185.24 125.667 185.24ZM132.201 185V173.6H134.361V174.925C134.422 174.832 134.486 174.743 134.553 174.656C135.225 173.792 136.193 173.36 137.457 173.36C138.033 173.36 138.553 173.464 139.017 173.672C139.481 173.864 139.913 174.192 140.313 174.656L138.897 176.12C138.657 175.864 138.393 175.68 138.105 175.568C137.817 175.456 137.481 175.4 137.097 175.4C136.297 175.4 135.641 175.656 135.129 176.168C134.617 176.68 134.361 177.456 134.361 178.496V185H132.201ZM141.858 185V173.6H144.018V185H141.858ZM142.938 171.32C142.538 171.32 142.21 171.192 141.954 170.936C141.698 170.664 141.57 170.328 141.57 169.928C141.57 169.544 141.698 169.224 141.954 168.968C142.21 168.696 142.538 168.56 142.938 168.56C143.338 168.56 143.666 168.696 143.922 168.968C144.178 169.224 144.306 169.544 144.306 169.928C144.306 170.328 144.178 170.664 143.922 170.936C143.666 171.192 143.338 171.32 142.938 171.32ZM153.201 185.24C152.337 185.24 151.553 185.064 150.849 184.712C150.25 184.392 149.754 183.968 149.361 183.441V189.776H147.201V173.6H149.361V175.167C149.767 174.638 150.271 174.22 150.873 173.912C151.577 173.544 152.353 173.36 153.201 173.36C154.241 173.36 155.177 173.624 156.009 174.152C156.857 174.68 157.521 175.392 158.001 176.288C158.481 177.184 158.721 178.192 158.721 179.312C158.721 180.432 158.481 181.44 158.001 182.336C157.521 183.232 156.857 183.944 156.009 184.472C155.177 184.984 154.241 185.24 153.201 185.24ZM152.841 183.2C153.561 183.2 154.193 183.032 154.737 182.696C155.281 182.36 155.713 181.904 156.033 181.328C156.353 180.736 156.513 180.056 156.513 179.288C156.513 178.536 156.353 177.864 156.033 177.272C155.713 176.68 155.281 176.224 154.737 175.904C154.193 175.568 153.569 175.4 152.865 175.4C152.145 175.4 151.513 175.568 150.969 175.904C150.425 176.224 150.001 176.68 149.697 177.272C149.393 177.864 149.241 178.544 149.241 179.312C149.241 180.064 149.385 180.736 149.673 181.328C149.977 181.904 150.401 182.36 150.945 182.696C151.505 183.032 152.137 183.2 152.841 183.2ZM162.57 185V175.568H159.762V173.6H162.57V168.824H164.73V173.6H167.538V175.568H164.73V185H162.57ZM3.64285 161H30.3571C32.3683 161 34 162.584 34 164.536V190.464C34 192.416 32.3683 194 30.3571 194H3.64285C1.6317 194 0 192.416 0 190.464V164.536C0 162.584 1.6317 161 3.64285 161ZM13.729 191.414C16.5598 191.414 18.5027 189.949 18.5027 186.737V176.152H15.3076V186.693C15.3076 188.247 14.6397 188.645 13.5924 188.645C12.492 188.645 12.0366 187.916 11.5357 187.054L8.93259 188.579C9.69151 190.133 11.1714 191.414 13.729 191.414ZM20.2406 188.247C21.1741 190.044 23.0942 191.414 26.0616 191.414C29.0897 191.414 31.3513 189.882 31.3513 187.098C31.3513 184.505 29.8259 183.349 27.1089 182.222L26.3121 181.89C24.9384 181.308 24.3464 180.933 24.3464 180.004C24.3464 179.253 24.9384 178.679 25.8719 178.679C26.7902 178.679 27.3821 179.054 27.9286 180.004L30.4179 178.458C29.3705 176.66 27.9134 175.975 25.8795 175.975C23.0335 175.975 21.2045 177.743 21.2045 180.071C21.2045 182.597 22.7299 183.798 25.037 184.748L25.8339 185.08C27.2987 185.706 28.1638 186.081 28.1638 187.142C28.1638 188.034 27.3138 188.674 25.9933 188.674C24.4223 188.674 23.5268 187.871 22.8438 186.789L20.2406 188.247ZM52.528 71.24C51.328 71.24 50.216 71.024 49.192 70.592C48.168 70.144 47.272 69.528 46.504 68.744C45.752 67.96 45.168 67.048 44.752 66.008C44.336 64.968 44.128 63.856 44.128 62.672C44.128 61.472 44.336 60.352 44.752 59.312C45.168 58.272 45.752 57.368 46.504 56.6C47.272 55.816 48.16 55.208 49.168 54.776C50.192 54.328 51.304 54.104 52.504 54.104C53.816 54.104 54.968 54.328 55.96 54.776C56.952 55.224 57.832 55.832 58.6 56.6L57.04 58.16C56.512 57.568 55.864 57.104 55.096 56.768C54.344 56.432 53.48 56.264 52.504 56.264C51.624 56.264 50.816 56.424 50.08 56.744C49.344 57.048 48.704 57.488 48.16 58.064C47.616 58.64 47.192 59.32 46.888 60.104C46.6 60.888 46.456 61.744 46.456 62.672C46.456 63.6 46.6 64.456 46.888 65.24C47.192 66.024 47.616 66.704 48.16 67.28C48.704 67.856 49.344 68.304 50.08 68.624C50.816 68.928 51.624 69.08 52.504 69.08C53.544 69.08 54.448 68.912 55.216 68.576C55.984 68.224 56.632 67.752 57.16 67.16L58.72 68.696C57.952 69.496 57.048 70.12 56.008 70.568C54.984 71.016 53.824 71.24 52.528 71.24ZM65.8422 71.24C64.5302 71.24 63.4102 71 62.4822 70.52C61.5542 70.04 60.7302 69.344 60.0102 68.432L61.5462 66.896C62.0742 67.632 62.6822 68.192 63.3702 68.576C64.0582 68.944 64.9062 69.128 65.9142 69.128C66.9062 69.128 67.6982 68.912 68.2902 68.48C68.8982 68.048 69.2022 67.456 69.2022 66.704C69.2022 66.08 69.0582 65.576 68.7702 65.192C68.4822 64.808 68.0902 64.496 67.5942 64.256C67.1142 64 66.5862 63.776 66.0102 63.584C65.4342 63.376 64.8582 63.16 64.2822 62.936C63.7062 62.696 63.1782 62.408 62.6982 62.072C62.2182 61.72 61.8262 61.264 61.5222 60.704C61.2342 60.144 61.0902 59.44 61.0902 58.592C61.0902 57.648 61.3142 56.848 61.7622 56.192C62.2262 55.52 62.8502 55.008 63.6342 54.656C64.4342 54.288 65.3302 54.104 66.3222 54.104C67.4102 54.104 68.3862 54.32 69.2502 54.752C70.1142 55.168 70.8182 55.72 71.3622 56.408L69.8262 57.944C69.3302 57.368 68.7942 56.936 68.2182 56.648C67.6582 56.36 67.0102 56.216 66.2742 56.216C65.3782 56.216 64.6662 56.416 64.1382 56.816C63.6102 57.2 63.3462 57.744 63.3462 58.448C63.3462 59.008 63.4902 59.464 63.7782 59.816C64.0822 60.152 64.4742 60.44 64.9542 60.68C65.4342 60.92 65.9622 61.144 66.5382 61.352C67.1302 61.544 67.7142 61.76 68.2902 62C68.8662 62.24 69.3942 62.544 69.8742 62.912C70.3542 63.28 70.7382 63.76 71.0262 64.352C71.3302 64.928 71.4822 65.656 71.4822 66.536C71.4822 68.008 70.9702 69.16 69.9462 69.992C68.9382 70.824 67.5702 71.24 65.8422 71.24ZM78.7328 71.24C77.4208 71.24 76.3008 71 75.3728 70.52C74.4448 70.04 73.6208 69.344 72.9008 68.432L74.4368 66.896C74.9648 67.632 75.5728 68.192 76.2608 68.576C76.9488 68.944 77.7968 69.128 78.8048 69.128C79.7968 69.128 80.5888 68.912 81.1808 68.48C81.7888 68.048 82.0928 67.456 82.0928 66.704C82.0928 66.08 81.9488 65.576 81.6608 65.192C81.3728 64.808 80.9808 64.496 80.4848 64.256C80.0048 64 79.4768 63.776 78.9008 63.584C78.3248 63.376 77.7488 63.16 77.1728 62.936C76.5968 62.696 76.0688 62.408 75.5888 62.072C75.1088 61.72 74.7168 61.264 74.4128 60.704C74.1248 60.144 73.9808 59.44 73.9808 58.592C73.9808 57.648 74.2048 56.848 74.6528 56.192C75.1168 55.52 75.7408 55.008 76.5248 54.656C77.3248 54.288 78.2208 54.104 79.2128 54.104C80.3008 54.104 81.2768 54.32 82.1408 54.752C83.0048 55.168 83.7088 55.72 84.2528 56.408L82.7168 57.944C82.2208 57.368 81.6848 56.936 81.1088 56.648C80.5488 56.36 79.9008 56.216 79.1648 56.216C78.2688 56.216 77.5568 56.416 77.0288 56.816C76.5008 57.2 76.2368 57.744 76.2368 58.448C76.2368 59.008 76.3808 59.464 76.6688 59.816C76.9728 60.152 77.3648 60.44 77.8448 60.68C78.3248 60.92 78.8528 61.144 79.4288 61.352C80.0208 61.544 80.6048 61.76 81.1808 62C81.7568 62.24 82.2848 62.544 82.7648 62.912C83.2448 63.28 83.6288 63.76 83.9168 64.352C84.2208 64.928 84.3728 65.656 84.3728 66.536C84.3728 68.008 83.8608 69.16 82.8368 69.992C81.8288 70.824 80.4608 71.24 78.7328 71.24ZM46.4844 94.8C46.7044 94.93 46.9594 94.995 47.2494 94.995C47.5394 94.995 47.7894 94.93 47.9994 94.8C48.2194 94.67 48.3894 94.495 48.5094 94.275C48.6394 94.045 48.7044 93.795 48.7044 93.525C48.7044 93.255 48.6394 93.01 48.5094 92.79C48.3894 92.57 48.2194 92.395 47.9994 92.265C47.7894 92.125 47.5394 92.055 47.2494 92.055C46.9594 92.055 46.7044 92.125 46.4844 92.265C46.2644 92.395 46.0894 92.57 45.9594 92.79C45.8394 93.01 45.7794 93.255 45.7794 93.525C45.7794 93.795 45.8394 94.045 45.9594 94.275C46.0894 94.495 46.2644 94.67 46.4844 94.8ZM60.525 98.7C61.105 99 61.805 99.15 62.625 99.15C63.705 99.15 64.56 98.89 65.19 98.37C65.83 97.85 66.15 97.13 66.15 96.21C66.15 95.66 66.055 95.205 65.865 94.845C65.685 94.475 65.445 94.175 65.145 93.945C64.845 93.715 64.515 93.525 64.155 93.375C63.795 93.225 63.43 93.09 63.06 92.97C62.7 92.84 62.37 92.7 62.07 92.55C61.77 92.4 61.525 92.22 61.335 92.01C61.155 91.79 61.065 91.505 61.065 91.155C61.065 90.715 61.23 90.375 61.56 90.135C61.89 89.885 62.335 89.76 62.895 89.76C63.355 89.76 63.76 89.85 64.11 90.03C64.47 90.21 64.805 90.48 65.115 90.84L66.075 89.88C65.735 89.45 65.295 89.105 64.755 88.845C64.215 88.575 63.605 88.44 62.925 88.44C62.305 88.44 61.745 88.555 61.245 88.785C60.755 89.005 60.365 89.325 60.075 89.745C59.795 90.155 59.655 90.655 59.655 91.245C59.655 91.775 59.745 92.215 59.925 92.565C60.115 92.915 60.36 93.2 60.66 93.42C60.96 93.63 61.29 93.81 61.65 93.96C62.01 94.1 62.37 94.235 62.73 94.365C63.09 94.485 63.42 94.625 63.72 94.785C64.03 94.935 64.275 95.13 64.455 95.37C64.635 95.61 64.725 95.925 64.725 96.315C64.725 96.785 64.535 97.155 64.155 97.425C63.785 97.695 63.29 97.83 62.67 97.83C62.04 97.83 61.51 97.715 61.08 97.485C60.65 97.245 60.27 96.895 59.94 96.435L58.98 97.395C59.43 97.965 59.945 98.4 60.525 98.7ZM68.9678 98.67C69.4978 98.99 70.0878 99.15 70.7378 99.15C71.2878 99.15 71.7728 99.04 72.1928 98.82C72.5653 98.6207 72.8704 98.3576 73.1078 98.0307V99H74.4728V91.875H73.1078V92.8495C72.8622 92.5215 72.5522 92.2616 72.1778 92.07C71.7578 91.84 71.2778 91.725 70.7378 91.725C70.0778 91.725 69.4828 91.89 68.9528 92.22C68.4328 92.55 68.0178 92.995 67.7078 93.555C67.4078 94.115 67.2578 94.745 67.2578 95.445C67.2578 96.145 67.4078 96.775 67.7078 97.335C68.0178 97.895 68.4378 98.34 68.9678 98.67ZM72.5828 97.2C72.1728 97.65 71.6328 97.875 70.9628 97.875C70.5128 97.875 70.1128 97.77 69.7628 97.56C69.4128 97.35 69.1378 97.065 68.9378 96.705C68.7478 96.335 68.6528 95.91 68.6528 95.43C68.6528 94.96 68.7478 94.545 68.9378 94.185C69.1378 93.815 69.4078 93.525 69.7478 93.315C70.0978 93.105 70.4978 93 70.9478 93C71.3978 93 71.7928 93.105 72.1328 93.315C72.4728 93.515 72.7328 93.8 72.9128 94.17C73.1028 94.53 73.1978 94.955 73.1978 95.445C73.1978 96.155 72.9928 96.74 72.5828 97.2ZM76.5883 98.55C76.8882 98.74 77.2133 98.89 77.5632 99C77.9232 99.1 78.3033 99.15 78.7032 99.15C79.5032 99.15 80.1382 98.955 80.6082 98.565C81.0883 98.175 81.3282 97.645 81.3282 96.975C81.3282 96.535 81.2332 96.18 81.0432 95.91C80.8633 95.64 80.6282 95.425 80.3383 95.265C80.0482 95.105 79.7433 94.98 79.4232 94.89C79.1032 94.79 78.7932 94.695 78.4933 94.605C78.2032 94.515 77.9682 94.405 77.7882 94.275C77.6082 94.145 77.5182 93.96 77.5182 93.72C77.5182 93.48 77.6183 93.295 77.8182 93.165C78.0282 93.025 78.3282 92.955 78.7182 92.955C79.0883 92.955 79.4182 93.025 79.7083 93.165C80.0082 93.305 80.2582 93.505 80.4583 93.765L81.3282 92.895C81.0482 92.505 80.6882 92.215 80.2482 92.025C79.8182 91.825 79.3232 91.725 78.7632 91.725C78.2332 91.725 77.7782 91.81 77.3983 91.98C77.0282 92.15 76.7383 92.395 76.5282 92.715C76.3182 93.025 76.2133 93.395 76.2133 93.825C76.2133 94.255 76.3033 94.6 76.4832 94.86C76.6732 95.12 76.9132 95.325 77.2032 95.475C77.4933 95.625 77.7982 95.75 78.1183 95.85C78.4482 95.94 78.7582 96.035 79.0482 96.135C79.3383 96.225 79.5732 96.345 79.7532 96.495C79.9432 96.635 80.0382 96.835 80.0382 97.095C80.0382 97.355 79.9232 97.56 79.6932 97.71C79.4633 97.85 79.1382 97.92 78.7182 97.92C78.2982 97.92 77.9182 97.845 77.5782 97.695C77.2383 97.535 76.9382 97.295 76.6783 96.975L75.8082 97.845C76.0282 98.115 76.2882 98.35 76.5883 98.55ZM82.9896 98.55C83.2896 98.74 83.6146 98.89 83.9646 99C84.3246 99.1 84.7046 99.15 85.1046 99.15C85.9046 99.15 86.5396 98.955 87.0096 98.565C87.4896 98.175 87.7296 97.645 87.7296 96.975C87.7296 96.535 87.6346 96.18 87.4446 95.91C87.2646 95.64 87.0296 95.425 86.7396 95.265C86.4496 95.105 86.1446 94.98 85.8246 94.89C85.5046 94.79 85.1946 94.695 84.8946 94.605C84.6046 94.515 84.3696 94.405 84.1896 94.275C84.0096 94.145 83.9196 93.96 83.9196 93.72C83.9196 93.48 84.0196 93.295 84.2196 93.165C84.4296 93.025 84.7296 92.955 85.1196 92.955C85.4896 92.955 85.8196 93.025 86.1096 93.165C86.4096 93.305 86.6596 93.505 86.8596 93.765L87.7296 92.895C87.4496 92.505 87.0896 92.215 86.6496 92.025C86.2196 91.825 85.7246 91.725 85.1646 91.725C84.6346 91.725 84.1796 91.81 83.7996 91.98C83.4296 92.15 83.1396 92.395 82.9296 92.715C82.7196 93.025 82.6146 93.395 82.6146 93.825C82.6146 94.255 82.7046 94.6 82.8846 94.86C83.0746 95.12 83.3146 95.325 83.6046 95.475C83.8946 95.625 84.1996 95.75 84.5196 95.85C84.7567 95.9147 84.9835 95.9819 85.2 96.0518C85.2848 96.0791 85.368 96.1069 85.4496 96.135C85.7396 96.225 85.9746 96.345 86.1546 96.495C86.3446 96.635 86.4396 96.835 86.4396 97.095C86.4396 97.355 86.3246 97.56 86.0946 97.71C85.8646 97.85 85.5396 97.92 85.1196 97.92C84.6996 97.92 84.3196 97.845 83.9796 97.695C83.6396 97.535 83.3396 97.295 83.0796 96.975L82.2096 97.845C82.4296 98.115 82.6896 98.35 82.9896 98.55ZM46.4844 113.8C46.7044 113.93 46.9594 113.995 47.2494 113.995C47.5394 113.995 47.7894 113.93 47.9994 113.8C48.2194 113.67 48.3894 113.495 48.5094 113.275C48.6394 113.045 48.7044 112.795 48.7044 112.525C48.7044 112.255 48.6394 112.01 48.5094 111.79C48.3894 111.57 48.2194 111.395 47.9994 111.265C47.7894 111.125 47.5394 111.055 47.2494 111.055C46.9594 111.055 46.7044 111.125 46.4844 111.265C46.2644 111.395 46.0894 111.57 45.9594 111.79C45.8394 112.01 45.7794 112.255 45.7794 112.525C45.7794 112.795 45.8394 113.045 45.9594 113.275C46.0894 113.495 46.2644 113.67 46.4844 113.8ZM63.825 116.77H61.14V113.14H63.87C64.25 113.14 64.58 113.22 64.86 113.38C65.15 113.54 65.37 113.76 65.52 114.04C65.67 114.31 65.745 114.615 65.745 114.955C65.745 115.455 65.575 115.885 65.235 116.245C64.895 116.595 64.425 116.77 63.825 116.77ZM61.14 111.91H63.66C64.16 111.91 64.555 111.78 64.845 111.52C65.145 111.25 65.295 110.865 65.295 110.365C65.295 109.865 65.14 109.485 64.83 109.225C64.52 108.955 64.11 108.82 63.6 108.82H61.14V111.91ZM61.14 107.59H63.63C64.31 107.59 64.875 107.715 65.325 107.965C65.785 108.205 66.13 108.525 66.36 108.925C66.6 109.325 66.72 109.765 66.72 110.245C66.72 110.805 66.565 111.295 66.255 111.715C66.0555 111.994 65.792 112.234 65.4643 112.433C65.9336 112.663 66.3122 112.969 66.6 113.35C66.98 113.83 67.17 114.4 67.17 115.06C67.17 115.61 67.035 116.105 66.765 116.545C66.495 116.985 66.105 117.34 65.595 117.61C65.095 117.87 64.48 118 63.75 118H61.14H60.675H59.73V107.59H60.675H61.14ZM70.2007 117.655C70.7607 117.985 71.3907 118.15 72.0907 118.15C72.7807 118.15 73.4057 117.985 73.9657 117.655C74.5357 117.325 74.9857 116.88 75.3157 116.32C75.6457 115.75 75.8107 115.115 75.8107 114.415C75.8107 113.725 75.6457 113.1 75.3157 112.54C74.9857 111.98 74.5357 111.54 73.9657 111.22C73.4057 110.89 72.7807 110.725 72.0907 110.725C71.3907 110.725 70.7607 110.89 70.2007 111.22C69.6407 111.55 69.1957 111.995 68.8657 112.555C68.5357 113.105 68.3707 113.725 68.3707 114.415C68.3707 115.115 68.5357 115.75 68.8657 116.32C69.1957 116.88 69.6407 117.325 70.2007 117.655ZM73.2907 116.53C72.9407 116.74 72.5407 116.845 72.0907 116.845C71.6407 116.845 71.2407 116.74 70.8907 116.53C70.5407 116.32 70.2657 116.035 70.0657 115.675C69.8657 115.305 69.7657 114.885 69.7657 114.415C69.7657 113.955 69.8657 113.545 70.0657 113.185C70.2657 112.825 70.5407 112.545 70.8907 112.345C71.2407 112.135 71.6407 112.03 72.0907 112.03C72.5407 112.03 72.9357 112.135 73.2757 112.345C73.6257 112.545 73.9007 112.825 74.1007 113.185C74.3107 113.545 74.4157 113.955 74.4157 114.415C74.4157 114.885 74.3157 115.305 74.1157 115.675C73.9157 116.035 73.6407 116.32 73.2907 116.53ZM78.6968 117.655C79.2568 117.985 79.8868 118.15 80.5868 118.15C81.2768 118.15 81.9018 117.985 82.4618 117.655C83.0318 117.325 83.4818 116.88 83.8118 116.32C84.1418 115.75 84.3068 115.115 84.3068 114.415C84.3068 113.725 84.1418 113.1 83.8118 112.54C83.4818 111.98 83.0318 111.54 82.4618 111.22C81.9018 110.89 81.2768 110.725 80.5868 110.725C79.8868 110.725 79.2568 110.89 78.6968 111.22C78.1368 111.55 77.6918 111.995 77.3618 112.555C77.0318 113.105 76.8668 113.725 76.8668 114.415C76.8668 115.115 77.0318 115.75 77.3618 116.32C77.6918 116.88 78.1368 117.325 78.6968 117.655ZM81.7868 116.53C81.4368 116.74 81.0368 116.845 80.5868 116.845C80.1368 116.845 79.7368 116.74 79.3868 116.53C79.0368 116.32 78.7618 116.035 78.5618 115.675C78.3618 115.305 78.2618 114.885 78.2618 114.415C78.2618 113.955 78.3618 113.545 78.5618 113.185C78.7618 112.825 79.0368 112.545 79.3868 112.345C79.7368 112.135 80.1368 112.03 80.5868 112.03C81.0368 112.03 81.4318 112.135 81.7718 112.345C82.1218 112.545 82.3968 112.825 82.5968 113.185C82.8068 113.545 82.9118 113.955 82.9118 114.415C82.9118 114.885 82.8118 115.305 82.6118 115.675C82.4118 116.035 82.1368 116.32 81.7868 116.53ZM86.7032 112.105V118H88.0532V112.105H89.8082V110.875H88.0532V107.89H86.7032V110.875H84.9482V112.105H86.7032ZM91.1342 117.55C91.4341 117.74 91.7592 117.89 92.1091 118C92.4691 118.1 92.8492 118.15 93.2491 118.15C94.0491 118.15 94.6841 117.955 95.1541 117.565C95.6342 117.175 95.8741 116.645 95.8741 115.975C95.8741 115.535 95.7791 115.18 95.5891 114.91C95.4091 114.64 95.1741 114.425 94.8842 114.265C94.5941 114.105 94.2892 113.98 93.9691 113.89C93.6491 113.79 93.3391 113.695 93.0392 113.605C92.7491 113.515 92.5141 113.405 92.3341 113.275C92.1541 113.145 92.0641 112.96 92.0641 112.72C92.0641 112.48 92.1642 112.295 92.3641 112.165C92.5741 112.025 92.8741 111.955 93.2641 111.955C93.6342 111.955 93.9641 112.025 94.2542 112.165C94.5541 112.305 94.8041 112.505 95.0042 112.765L95.8741 111.895C95.5941 111.505 95.2341 111.215 94.7941 111.025C94.3641 110.825 93.8691 110.725 93.3091 110.725C92.7791 110.725 92.3241 110.81 91.9442 110.98C91.5741 111.15 91.2841 111.395 91.0741 111.715C90.8641 112.025 90.7592 112.395 90.7592 112.825C90.7592 113.255 90.8492 113.6 91.0291 113.86C91.2191 114.12 91.4591 114.325 91.7491 114.475C92.0392 114.625 92.3441 114.75 92.6642 114.85C92.9941 114.94 93.3041 115.035 93.5941 115.135C93.8842 115.225 94.1191 115.345 94.2991 115.495C94.4891 115.635 94.5841 115.835 94.5841 116.095C94.5841 116.355 94.4691 116.56 94.2391 116.71C94.0092 116.85 93.6841 116.92 93.2641 116.92C92.8441 116.92 92.4641 116.845 92.1241 116.695C91.7841 116.535 91.4841 116.295 91.2242 115.975L90.3541 116.845C90.5741 117.115 90.8341 117.35 91.1342 117.55ZM98.4805 112.105V118H99.8305V112.105H101.586V110.875H99.8305V107.89H98.4805V110.875H96.7255V112.105H98.4805ZM102.908 110.875V118H104.258V113.935C104.258 113.285 104.418 112.8 104.738 112.48C105.058 112.16 105.468 112 105.968 112C106.208 112 106.418 112.035 106.598 112.105C106.778 112.175 106.943 112.29 107.093 112.45L107.978 111.535C107.728 111.245 107.458 111.04 107.168 110.92C106.878 110.79 106.553 110.725 106.193 110.725C105.403 110.725 104.798 110.995 104.378 111.535C104.336 111.589 104.296 111.645 104.258 111.703V110.875H102.908ZM109.954 117.67C110.484 117.99 111.074 118.15 111.724 118.15C112.274 118.15 112.759 118.04 113.179 117.82C113.552 117.621 113.857 117.358 114.094 117.031V118H115.459V110.875H114.094V111.85C113.849 111.521 113.539 111.262 113.164 111.07C112.744 110.84 112.264 110.725 111.724 110.725C111.064 110.725 110.469 110.89 109.939 111.22C109.419 111.55 109.004 111.995 108.694 112.555C108.394 113.115 108.244 113.745 108.244 114.445C108.244 115.145 108.394 115.775 108.694 116.335C109.004 116.895 109.424 117.34 109.954 117.67ZM113.569 116.2C113.159 116.65 112.619 116.875 111.949 116.875C111.499 116.875 111.099 116.77 110.749 116.56C110.399 116.35 110.124 116.065 109.924 115.705C109.734 115.335 109.639 114.91 109.639 114.43C109.639 113.96 109.734 113.545 109.924 113.185C110.124 112.815 110.394 112.525 110.734 112.315C111.084 112.105 111.484 112 111.934 112C112.384 112 112.779 112.105 113.119 112.315C113.459 112.515 113.719 112.8 113.899 113.17C114.089 113.53 114.184 113.955 114.184 114.445C114.184 115.155 113.979 115.74 113.569 116.2ZM119.705 117.82C120.145 118.04 120.635 118.15 121.175 118.15C121.825 118.15 122.41 117.99 122.93 117.67C123.46 117.34 123.875 116.895 124.175 116.335C124.475 115.775 124.625 115.145 124.625 114.445C124.625 113.745 124.475 113.115 124.175 112.555C123.875 111.995 123.46 111.55 122.93 111.22C122.41 110.89 121.825 110.725 121.175 110.725C120.645 110.725 120.16 110.84 119.72 111.07C119.343 111.263 119.028 111.524 118.775 111.854V110.875H117.425V120.985H118.775V117.026C119.02 117.355 119.33 117.62 119.705 117.82ZM122.135 116.56C121.795 116.77 121.4 116.875 120.95 116.875C120.51 116.875 120.115 116.77 119.765 116.56C119.425 116.35 119.16 116.065 118.97 115.705C118.79 115.335 118.7 114.915 118.7 114.445C118.7 113.965 118.795 113.54 118.985 113.17C119.175 112.8 119.44 112.515 119.78 112.315C120.12 112.105 120.515 112 120.965 112C121.405 112 121.795 112.105 122.135 112.315C122.475 112.515 122.745 112.8 122.945 113.17C123.145 113.54 123.245 113.96 123.245 114.43C123.245 114.91 123.145 115.335 122.945 115.705C122.745 116.065 122.475 116.35 122.135 116.56ZM46.4844 132.8C46.7044 132.93 46.9594 132.995 47.2494 132.995C47.5394 132.995 47.7894 132.93 47.9994 132.8C48.2194 132.67 48.3894 132.495 48.5094 132.275C48.6394 132.045 48.7044 131.795 48.7044 131.525C48.7044 131.255 48.6394 131.01 48.5094 130.79C48.3894 130.57 48.2194 130.395 47.9994 130.265C47.7894 130.125 47.5394 130.055 47.2494 130.055C46.9594 130.055 46.7044 130.125 46.4844 130.265C46.2644 130.395 46.0894 130.57 45.9594 130.79C45.8394 131.01 45.7794 131.255 45.7794 131.525C45.7794 131.795 45.8394 132.045 45.9594 132.275C46.0894 132.495 46.2644 132.67 46.4844 132.8ZM62.49 127.88V137H63.9V127.88H67.425V126.59H58.95V127.88H62.49ZM68.1475 136.67C68.6775 136.99 69.2675 137.15 69.9174 137.15C70.4675 137.15 70.9525 137.04 71.3725 136.82C71.745 136.621 72.05 136.358 72.2875 136.031V137H73.6525V129.875H72.2875V130.85C72.0419 130.521 71.7319 130.262 71.3575 130.07C70.9375 129.84 70.4575 129.725 69.9174 129.725C69.2574 129.725 68.6625 129.89 68.1324 130.22C67.6125 130.55 67.1974 130.995 66.8875 131.555C66.5875 132.115 66.4375 132.745 66.4375 133.445C66.4375 134.145 66.5875 134.775 66.8875 135.335C67.1974 135.895 67.6175 136.34 68.1475 136.67ZM71.7625 135.2C71.3524 135.65 70.8125 135.875 70.1425 135.875C69.6925 135.875 69.2924 135.77 68.9425 135.56C68.5925 135.35 68.3175 135.065 68.1175 134.705C67.9275 134.335 67.8325 133.91 67.8325 133.43C67.8325 132.96 67.9275 132.545 68.1175 132.185C68.3175 131.815 68.5875 131.525 68.9275 131.315C69.2775 131.105 69.6775 131 70.1275 131C70.5775 131 70.9725 131.105 71.3125 131.315C71.6525 131.515 71.9125 131.8 72.0925 132.17C72.2825 132.53 72.3775 132.955 72.3775 133.445C72.3775 134.155 72.1725 134.74 71.7625 135.2ZM75.6329 129.875V137H76.9829V129.875H75.6329ZM75.6929 128.21C75.8529 128.37 76.0579 128.45 76.3079 128.45C76.5579 128.45 76.7629 128.37 76.9229 128.21C77.0829 128.04 77.1629 127.83 77.1629 127.58C77.1629 127.34 77.0829 127.14 76.9229 126.98C76.7629 126.81 76.5579 126.725 76.3079 126.725C76.0579 126.725 75.8529 126.81 75.6929 126.98C75.5329 127.14 75.4529 127.34 75.4529 127.58C75.4529 127.83 75.5329 128.04 75.6929 128.21ZM78.9724 126.29V137H80.3224V126.29H78.9724ZM81.5176 129.875L84.3376 137H85.1176L86.9392 132.261L88.7476 137H89.5426L92.3476 129.875H90.9376L89.1234 134.811L87.3226 129.875H86.5426L84.7418 134.811L82.9276 129.875H81.5176ZM93.4454 129.875V137H94.7954V129.875H93.4454ZM93.5054 128.21C93.6654 128.37 93.8704 128.45 94.1204 128.45C94.3704 128.45 94.5754 128.37 94.7354 128.21C94.8954 128.04 94.9754 127.83 94.9754 127.58C94.9754 127.34 94.8954 127.14 94.7354 126.98C94.5754 126.81 94.3704 126.725 94.1204 126.725C93.8704 126.725 93.6654 126.81 93.5054 126.98C93.3454 127.14 93.2654 127.34 93.2654 127.58C93.2654 127.83 93.3454 128.04 93.5054 128.21ZM101.825 132.845V137H103.175V132.575C103.175 132.085 103.055 131.625 102.815 131.195C102.575 130.755 102.245 130.4 101.825 130.13C101.415 129.86 100.94 129.725 100.4 129.725C99.8599 129.725 99.3749 129.85 98.9449 130.1C98.621 130.281 98.351 130.513 98.1349 130.796V129.875H96.7849V137H98.1349V132.845C98.1349 132.485 98.2149 132.165 98.3749 131.885C98.5349 131.605 98.7549 131.385 99.0349 131.225C99.3149 131.065 99.6349 130.985 99.9949 130.985C100.535 130.985 100.975 131.16 101.315 131.51C101.655 131.86 101.825 132.305 101.825 132.845ZM106.248 136.67C106.768 136.99 107.358 137.15 108.018 137.15C108.558 137.15 109.043 137.04 109.473 136.82C109.847 136.62 110.157 136.355 110.403 136.026V137H111.768V126.29H110.403V130.87C110.155 130.532 109.84 130.266 109.458 130.07C109.028 129.84 108.548 129.725 108.018 129.725C107.358 129.725 106.768 129.89 106.248 130.22C105.728 130.55 105.313 130.995 105.003 131.555C104.703 132.115 104.553 132.745 104.553 133.445C104.553 134.145 104.703 134.775 105.003 135.335C105.313 135.895 105.728 136.34 106.248 136.67ZM109.413 135.56C109.083 135.77 108.693 135.875 108.243 135.875C107.793 135.875 107.393 135.77 107.043 135.56C106.703 135.35 106.433 135.065 106.233 134.705C106.043 134.335 105.948 133.91 105.948 133.43C105.948 132.96 106.043 132.545 106.233 132.185C106.433 131.815 106.703 131.525 107.043 131.315C107.383 131.105 107.778 131 108.228 131C108.678 131 109.068 131.105 109.398 131.315C109.738 131.525 110.003 131.81 110.193 132.17C110.393 132.53 110.493 132.955 110.493 133.445C110.493 133.915 110.398 134.335 110.208 134.705C110.018 135.065 109.753 135.35 109.413 135.56ZM59.2494 208.995C58.9594 208.995 58.7044 208.93 58.4844 208.8C58.2644 208.67 58.0894 208.495 57.9594 208.275C57.8394 208.045 57.7794 207.795 57.7794 207.525C57.7794 207.255 57.8394 207.01 57.9594 206.79C58.0894 206.57 58.2644 206.395 58.4844 206.265C58.7044 206.125 58.9594 206.055 59.2494 206.055C59.5394 206.055 59.7894 206.125 59.9994 206.265C60.2194 206.395 60.3894 206.57 60.5094 206.79C60.6394 207.01 60.7044 207.255 60.7044 207.525C60.7044 207.795 60.6394 208.045 60.5094 208.275C60.3894 208.495 60.2194 208.67 59.9994 208.8C59.7894 208.93 59.5394 208.995 59.2494 208.995ZM76.44 213.15C75.71 213.15 75.025 213.015 74.385 212.745C73.755 212.465 73.2 212.08 72.72 211.59C72.25 211.1 71.88 210.53 71.61 209.88C71.34 209.23 71.205 208.53 71.205 207.78C71.205 207.03 71.34 206.335 71.61 205.695C71.88 205.045 72.255 204.475 72.735 203.985C73.215 203.495 73.775 203.115 74.415 202.845C75.065 202.575 75.77 202.44 76.53 202.44C77.36 202.44 78.125 202.6 78.825 202.92C79.525 203.24 80.11 203.7 80.58 204.3L79.605 205.275C79.275 204.795 78.84 204.43 78.3 204.18C77.76 203.92 77.17 203.79 76.53 203.79C75.77 203.79 75.095 203.96 74.505 204.3C73.925 204.64 73.47 205.11 73.14 205.71C72.82 206.31 72.66 207 72.66 207.78C72.66 208.57 72.825 209.265 73.155 209.865C73.485 210.465 73.93 210.935 74.49 211.275C75.05 211.615 75.69 211.785 76.41 211.785C77.14 211.785 77.77 211.645 78.3 211.365C78.84 211.085 79.255 210.675 79.545 210.135C79.7565 209.734 79.8909 209.269 79.9482 208.74H76.335V207.45H81.435V207.66C81.435 208.87 81.22 209.885 80.79 210.705C80.37 211.515 79.78 212.125 79.02 212.535C78.27 212.945 77.41 213.15 76.44 213.15ZM86.0215 213.15C85.2015 213.15 84.5015 213 83.9215 212.7C83.3415 212.4 82.8265 211.965 82.3765 211.395L83.3365 210.435C83.6665 210.895 84.0465 211.245 84.4765 211.485C84.9065 211.715 85.4365 211.83 86.0665 211.83C86.6865 211.83 87.1815 211.695 87.5515 211.425C87.9315 211.155 88.1215 210.785 88.1215 210.315C88.1215 209.925 88.0315 209.61 87.8515 209.37C87.6715 209.13 87.4265 208.935 87.1165 208.785C86.8165 208.625 86.4865 208.485 86.1265 208.365C85.7665 208.235 85.4065 208.1 85.0465 207.96C84.6865 207.81 84.3565 207.63 84.0565 207.42C83.7565 207.2 83.5115 206.915 83.3215 206.565C83.1415 206.215 83.0515 205.775 83.0515 205.245C83.0515 204.655 83.1915 204.155 83.4715 203.745C83.7615 203.325 84.1515 203.005 84.6415 202.785C85.1415 202.555 85.7015 202.44 86.3215 202.44C87.0015 202.44 87.6115 202.575 88.1515 202.845C88.6915 203.105 89.1315 203.45 89.4715 203.88L88.5115 204.84C88.2015 204.48 87.8665 204.21 87.5065 204.03C87.1565 203.85 86.7515 203.76 86.2915 203.76C85.7315 203.76 85.2865 203.885 84.9565 204.135C84.6265 204.375 84.4615 204.715 84.4615 205.155C84.4615 205.505 84.5515 205.79 84.7315 206.01C84.9215 206.22 85.1665 206.4 85.4665 206.55C85.7665 206.7 86.0965 206.84 86.4565 206.97C86.8265 207.09 87.1915 207.225 87.5515 207.375C87.9115 207.525 88.2415 207.715 88.5415 207.945C88.8415 208.175 89.0815 208.475 89.2615 208.845C89.4515 209.205 89.5465 209.66 89.5465 210.21C89.5465 211.13 89.2265 211.85 88.5865 212.37C87.9565 212.89 87.1015 213.15 86.0215 213.15ZM90.3449 213L94.6049 202.59H95.6249L99.8699 213H98.3399L97.4051 210.645H92.7877L91.8449 213H90.3449ZM95.1063 204.854L96.9169 209.415H93.2801L95.1063 204.854ZM102.847 213V208.95H105.307C105.947 208.95 106.517 208.82 107.017 208.56C107.527 208.29 107.927 207.92 108.217 207.45C108.517 206.97 108.667 206.41 108.667 205.77C108.667 205.12 108.517 204.56 108.217 204.09C107.927 203.61 107.527 203.24 107.017 202.98C106.517 202.72 105.947 202.59 105.307 202.59H102.847H102.382H101.437V213H102.847ZM105.217 207.72H102.847V203.82H105.217C105.607 203.82 105.952 203.9 106.252 204.06C106.562 204.22 106.802 204.445 106.972 204.735C107.152 205.025 107.242 205.37 107.242 205.77C107.242 206.17 107.152 206.515 106.972 206.805C106.802 207.095 106.562 207.32 106.252 207.48C105.952 207.64 105.607 207.72 105.217 207.72ZM59.2494 227.995C58.9594 227.995 58.7044 227.93 58.4844 227.8C58.2644 227.67 58.0894 227.495 57.9594 227.275C57.8394 227.045 57.7794 226.795 57.7794 226.525C57.7794 226.255 57.8394 226.01 57.9594 225.79C58.0894 225.57 58.2644 225.395 58.4844 225.265C58.7044 225.125 58.9594 225.055 59.2494 225.055C59.5394 225.055 59.7894 225.125 59.9994 225.265C60.2194 225.395 60.3894 225.57 60.5094 225.79C60.6394 226.01 60.7044 226.255 60.7044 226.525C60.7044 226.795 60.6394 227.045 60.5094 227.275C60.3894 227.495 60.2194 227.67 59.9994 227.8C59.7894 227.93 59.5394 227.995 59.2494 227.995ZM70.59 235.135C70.13 235.135 69.745 235.06 69.435 234.91C69.115 234.76 68.83 234.545 68.58 234.265L69.45 233.38C69.59 233.55 69.745 233.675 69.915 233.755C70.075 233.835 70.27 233.875 70.5 233.875C70.8 233.875 71.06 233.78 71.28 233.59C71.5 233.41 71.61 233.135 71.61 232.765V224.875H72.96V232.75C72.96 233.27 72.85 233.705 72.63 234.055C72.41 234.405 72.12 234.67 71.76 234.85C71.4 235.04 71.01 235.135 70.59 235.135ZM72.3 223.45C72.06 223.45 71.86 223.37 71.7 223.21C71.54 223.04 71.46 222.83 71.46 222.58C71.46 222.34 71.54 222.14 71.7 221.98C71.86 221.81 72.06 221.725 72.3 221.725C72.55 221.725 72.755 221.81 72.915 221.98C73.075 222.14 73.155 222.34 73.155 222.58C73.155 222.83 73.075 223.04 72.915 223.21C72.755 223.37 72.55 223.45 72.3 223.45ZM79.942 232.15C79.202 232.15 78.512 232.015 77.872 231.745C77.232 231.465 76.672 231.08 76.192 230.59C75.712 230.09 75.337 229.515 75.067 228.865C74.797 228.215 74.662 227.52 74.662 226.78C74.662 226.03 74.797 225.335 75.067 224.695C75.337 224.045 75.707 223.475 76.177 222.985C76.657 222.495 77.212 222.115 77.842 221.845C78.482 221.575 79.172 221.44 79.912 221.44C80.652 221.44 81.337 221.575 81.967 221.845C82.607 222.115 83.167 222.495 83.647 222.985C84.127 223.475 84.497 224.045 84.757 224.695C85.027 225.345 85.162 226.045 85.162 226.795C85.162 227.535 85.027 228.23 84.757 228.88C84.5828 229.316 84.3592 229.715 84.0862 230.079L85.822 231.82L84.922 232.735L83.1948 231.008C82.8317 231.304 82.4275 231.55 81.982 231.745C81.352 232.015 80.672 232.15 79.942 232.15ZM83.212 228.865C83.173 228.938 83.1321 229.009 83.0894 229.079L80.962 226.945L80.047 227.86L82.231 230.044C82.119 230.132 82.0009 230.214 81.877 230.29C81.307 230.63 80.652 230.8 79.912 230.8C79.362 230.8 78.852 230.7 78.382 230.5C77.922 230.3 77.522 230.025 77.182 229.675C76.852 229.315 76.592 228.89 76.402 228.4C76.212 227.9 76.117 227.36 76.117 226.78C76.117 226 76.277 225.31 76.597 224.71C76.927 224.11 77.377 223.64 77.947 223.3C78.517 222.96 79.172 222.79 79.912 222.79C80.472 222.79 80.982 222.89 81.442 223.09C81.902 223.28 82.302 223.555 82.642 223.915C82.982 224.275 83.242 224.7 83.422 225.19C83.612 225.67 83.707 226.2 83.707 226.78C83.707 227.56 83.542 228.255 83.212 228.865ZM90.0728 232.15C89.4928 232.15 88.9678 232.02 88.4978 231.76C88.0378 231.49 87.6778 231.12 87.4178 230.65C87.1578 230.18 87.0278 229.635 87.0278 229.015V224.875H88.3778V228.955C88.3778 229.345 88.4428 229.685 88.5728 229.975C88.7128 230.255 88.9128 230.47 89.1728 230.62C89.4328 230.77 89.7378 230.845 90.0878 230.845C90.6178 230.845 91.0328 230.68 91.3328 230.35C91.6328 230.01 91.7828 229.545 91.7828 228.955V224.875H93.1328V229.015C93.1328 229.635 93.0028 230.18 92.7428 230.65C92.4828 231.12 92.1228 231.49 91.6628 231.76C91.2128 232.02 90.6828 232.15 90.0728 232.15ZM98.2422 232.15C97.5321 232.15 96.8922 231.99 96.3221 231.67C95.7521 231.34 95.3022 230.895 94.9721 230.335C94.6422 229.775 94.4771 229.14 94.4771 228.43C94.4771 227.73 94.6371 227.1 94.9572 226.54C95.2871 225.98 95.7271 225.54 96.2772 225.22C96.8372 224.89 97.4622 224.725 98.1522 224.725C98.8121 224.725 99.3922 224.875 99.8922 225.175C100.402 225.475 100.797 225.89 101.077 226.42C101.367 226.95 101.512 227.55 101.512 228.22C101.512 228.32 101.507 228.43 101.497 228.55C101.487 228.66 101.467 228.79 101.437 228.94H95.8573C95.9048 229.217 95.9897 229.472 96.1122 229.705C96.3121 230.075 96.5971 230.365 96.9672 230.575C97.3372 230.775 97.7621 230.875 98.2422 230.875C98.6422 230.875 99.0071 230.805 99.3372 230.665C99.6772 230.525 99.9672 230.315 100.207 230.035L101.077 230.92C100.737 231.32 100.317 231.625 99.8171 231.835C99.3271 232.045 98.8022 232.15 98.2422 232.15ZM96.0971 227.11C95.985 227.322 95.906 227.557 95.86 227.815H100.196C100.16 227.52 100.083 227.26 99.9672 227.035C99.7971 226.695 99.5572 226.435 99.2472 226.255C98.9371 226.065 98.5621 225.97 98.1222 225.97C97.6621 225.97 97.2571 226.07 96.9071 226.27C96.5572 226.47 96.2871 226.75 96.0971 227.11ZM102.984 232V224.875H104.334V225.703C104.372 225.645 104.412 225.589 104.454 225.535C104.874 224.995 105.479 224.725 106.269 224.725C106.629 224.725 106.954 224.79 107.244 224.92C107.534 225.04 107.804 225.245 108.054 225.535L107.169 226.45C107.019 226.29 106.854 226.175 106.674 226.105C106.494 226.035 106.284 226 106.044 226C105.544 226 105.134 226.16 104.814 226.48C104.494 226.8 104.334 227.285 104.334 227.935V232H102.984ZM110.673 234.985L112.023 232.06L115.353 224.875H113.853L111.684 229.927L109.623 224.875H108.123L110.926 231.392L109.173 234.985H110.673ZM4.72656 74.9219L2 44H32L29.2734 74.9219L17 79L4.72656 74.9219ZM26.0859 53.9453L26.4609 50.25H7.53906L7.99219 53.9453H17.5938L17.0859 54.1562L8.32812 57.8047L8.60938 61.4219L8.625 61.4141V61.4219L21.6172 61.4609L21.3281 66.2734L17.0547 67.4766L12.9453 66.4375L12.6953 63.4453H8.875L9.375 69.2188L17.0938 71.5L24.7656 69.2578L25.7656 57.8047H17.0547L17.0781 57.7969L26.0859 53.9453Z" fill="#838383"/>
</svg>
