<svg width="35" height="33" viewBox="0 0 35 33" fill="none" xmlns="http://www.w3.org/2000/svg">
<path d="M6.34918 0H28.1516C31.4572 0 34.1297 2.61649 34.1297 5.85267V26.3715C34.1297 29.6076 31.4572 32.2241 28.1516 32.2241H6.34918C3.04365 32.2241 0.371094 29.6076 0.371094 26.3715V5.85267C0.371094 2.61649 3.04365 0 6.34918 0Z" fill="#001E36"/>
<path d="M7.89258 22.2621V7.92966C7.89258 7.83216 7.93436 7.77644 8.03186 7.77644C8.26865 7.77644 8.4915 7.77644 8.81186 7.76251C9.14615 7.74859 9.49436 7.74859 9.87043 7.73466C10.2465 7.72073 10.6504 7.72073 11.0822 7.7068C11.514 7.69287 11.9319 7.69287 12.3497 7.69287C13.4918 7.69287 14.439 7.83216 15.219 8.12466C15.9154 8.36144 16.5561 8.75144 17.0854 9.2668C17.5311 9.71251 17.8793 10.2557 18.1022 10.8546C18.3111 11.4396 18.4226 12.0386 18.4226 12.6654C18.4226 13.8632 18.144 14.8521 17.5868 15.6321C17.0297 16.4121 16.2497 16.9971 15.3443 17.3314C14.3972 17.6796 13.3526 17.805 12.2104 17.805C11.8761 17.805 11.6533 17.805 11.514 17.7911C11.3747 17.7771 11.1797 17.7771 10.9151 17.7771V22.2482C10.929 22.3457 10.8594 22.4293 10.7619 22.4432H8.05972C7.94829 22.4432 7.89258 22.3875 7.89258 22.2621ZM10.929 10.4646V15.1446C11.124 15.1586 11.3051 15.1725 11.4722 15.1725H12.2104C12.7536 15.1725 13.2968 15.0889 13.8122 14.9218C14.2579 14.7964 14.6479 14.5318 14.9543 14.1836C15.2468 13.8354 15.3861 13.3618 15.3861 12.7489C15.4001 12.3171 15.2886 11.8854 15.0658 11.5093C14.829 11.1471 14.4947 10.8686 14.0908 10.7154C13.5754 10.5064 13.0183 10.4229 12.4472 10.4368C12.0851 10.4368 11.7647 10.4368 11.5001 10.4507C11.2215 10.4368 11.0265 10.4507 10.929 10.4646ZM27.114 14.295C26.6961 14.0721 26.2504 13.9189 25.7768 13.8214C25.2615 13.71 24.7461 13.6404 24.2168 13.6404C23.9382 13.6264 23.6458 13.6682 23.3811 13.7379C23.2 13.7796 23.0468 13.8771 22.9493 14.0164C22.8797 14.1279 22.8379 14.2671 22.8379 14.3925C22.8379 14.5179 22.8936 14.6432 22.9772 14.7546C23.1025 14.9079 23.2697 15.0332 23.4508 15.1307C23.7711 15.2979 24.1054 15.4511 24.4397 15.5904C25.1918 15.8411 25.9161 16.1893 26.5847 16.6071C27.0443 16.8996 27.4204 17.2896 27.685 17.7632C27.9079 18.2089 28.0193 18.6964 28.0054 19.1978C28.0193 19.8525 27.8243 20.5071 27.4622 21.0503C27.0722 21.6075 26.529 22.0393 25.9022 22.29C25.2197 22.5825 24.384 22.7357 23.3811 22.7357C22.7404 22.7357 22.1136 22.68 21.4868 22.5546C20.9993 22.471 20.5118 22.3178 20.0661 22.1089C19.9686 22.0532 19.899 21.9557 19.9129 21.8443V19.4207C19.9129 19.3789 19.9268 19.3232 19.9686 19.2953C20.0104 19.2675 20.0522 19.2814 20.094 19.3093C20.6372 19.6296 21.2083 19.8525 21.8211 19.9918C22.3504 20.1311 22.9075 20.2007 23.4647 20.2007C23.994 20.2007 24.37 20.1311 24.6207 20.0057C24.8436 19.9082 24.9968 19.6714 24.9968 19.4207C24.9968 19.2257 24.8854 19.0446 24.6625 18.8636C24.4397 18.6825 23.98 18.4736 23.2975 18.2089C22.5872 17.9582 21.9325 17.6239 21.3197 17.2061C20.8879 16.8996 20.5258 16.4957 20.2611 16.0221C20.0383 15.5764 19.9268 15.0889 19.9408 14.6014C19.9408 14.0025 20.1079 13.4314 20.4143 12.9161C20.7625 12.3589 21.2779 11.9132 21.8768 11.6346C22.5315 11.3004 23.3533 11.1471 24.3422 11.1471C24.9132 11.1471 25.4982 11.1889 26.0693 11.2725C26.4872 11.3282 26.8911 11.4396 27.2672 11.5929C27.3229 11.6068 27.3786 11.6625 27.4065 11.7182C27.4204 11.7739 27.4343 11.8296 27.4343 11.8854V14.1557C27.4343 14.2114 27.4065 14.2671 27.3647 14.295C27.2393 14.3229 27.1697 14.3229 27.114 14.295Z" fill="#31A8FF"/>
</svg>
