<svg width="41" height="37" viewBox="0 0 41 37" fill="none" xmlns="http://www.w3.org/2000/svg">
<path d="M20.5002 21.8554C22.5094 21.8554 24.1381 20.2267 24.1381 18.2175C24.1381 16.2083 22.5094 14.5796 20.5002 14.5796C18.4911 14.5796 16.8623 16.2083 16.8623 18.2175C16.8623 20.2267 18.4911 21.8554 20.5002 21.8554Z" fill="#00D8FF"/>
<path fill-rule="evenodd" clip-rule="evenodd" d="M20.5003 10.8208C25.3847 10.8208 29.9222 11.5217 33.3434 12.6995C37.4656 14.1186 40 16.2697 40 18.2175C40 20.2472 37.314 22.5324 32.8874 23.999C29.5408 25.1078 25.1369 25.6866 20.5003 25.6866C15.7466 25.6866 11.2451 25.1433 7.86076 23.9868C3.57897 22.5233 1 20.2085 1 18.2175C1 16.2855 3.41986 14.151 7.48403 12.7341C10.918 11.5368 15.5676 10.8208 20.4997 10.8208H20.5003Z" stroke="#00D8FF" stroke-width="1.66272"/>
<path fill-rule="evenodd" clip-rule="evenodd" d="M14.0614 14.5405C16.5016 10.3093 19.3754 6.72877 22.1049 4.35343C25.3935 1.49151 28.5231 0.370699 30.2103 1.34365C31.9687 2.35764 32.6064 5.82616 31.6655 10.3934C30.9548 13.8465 29.2555 17.9504 26.9392 21.967C24.5643 26.085 21.8449 29.7131 19.1526 32.0664C15.7458 35.0445 12.4521 36.1223 10.7273 35.1276C9.05365 34.1631 8.41363 30.9999 9.21652 26.7713C9.89491 23.1984 11.5974 18.813 14.0606 14.5404L14.0614 14.5405Z" stroke="#00D8FF" stroke-width="1.66272"/>
<path fill-rule="evenodd" clip-rule="evenodd" d="M14.0671 21.9778C11.62 17.7514 9.95395 13.4726 9.25852 9.92165C8.4214 5.6432 9.01327 2.37199 10.699 1.39622C12.4556 0.37925 15.7791 1.55894 19.266 4.65509C21.9024 6.99592 24.6096 10.5171 26.9327 14.5298C29.3144 18.6439 31.0995 22.8119 31.7939 26.3197C32.6725 30.7586 31.9614 34.1503 30.2382 35.1478C28.5662 36.1157 25.5065 35.0909 22.244 32.2834C19.4874 29.9114 16.5383 26.2462 14.0671 21.9778V21.9778Z" stroke="#00D8FF" stroke-width="1.66272"/>
</svg>
