<svg width="40" height="32" viewBox="0 0 40 32" fill="none" xmlns="http://www.w3.org/2000/svg">
<path d="M19.955 17.4154C20.0281 16.1646 20.678 15.0611 21.6561 14.28C22.6163 13.5111 23.9095 13.043 25.3181 13.043C26.7284 13.0445 28.02 13.5126 28.9802 14.28C29.9582 15.0627 30.6081 16.1646 30.6828 17.4154C30.7576 18.7016 30.2101 19.8971 29.2499 20.7827C28.2718 21.6835 26.8778 22.2499 25.3181 22.2499C23.7584 22.2499 22.3628 21.6835 21.3848 20.7827C20.4262 19.8971 19.8803 18.7016 19.955 17.4154Z" fill="#005385"/>
<path d="M11.9843 20.2994C11.9939 20.803 12.1571 21.7848 12.4003 22.5528C12.9139 24.1759 13.7843 25.6786 14.9972 27.0024C16.242 28.3627 17.7717 29.4553 19.5413 30.2296C21.4022 31.0451 23.4166 31.4616 25.5079 31.4569C27.5992 31.4537 29.6136 31.0309 31.4729 30.209C33.241 29.4252 34.7706 28.3294 36.0139 26.966C37.2251 25.6359 38.0939 24.1315 38.6075 22.5084C38.8635 21.6993 39.0284 20.8647 39.0956 20.0207C39.1596 19.1973 39.1324 18.3675 39.0156 17.5489C38.7851 15.9432 38.2235 14.4373 37.3595 13.0644C36.5675 11.8039 35.5498 10.6986 34.3386 9.7675L34.3402 9.76591L22.119 0.480203C22.1094 0.472285 22.0982 0.462784 22.0886 0.454867C21.2838 -0.153202 19.9365 -0.151618 19.0549 0.459617C18.1621 1.07719 18.0613 2.09855 18.8533 2.74304L18.8501 2.74462L23.9479 6.84909L8.40655 6.86492H8.38575C7.10251 6.8665 5.86727 7.70102 5.62246 8.75405C5.37285 9.82767 6.24488 10.7176 7.58092 10.7239L7.57932 10.7287L15.4564 10.7129L1.39992 21.3905C1.38232 21.4047 1.36312 21.4174 1.34712 21.4301C0.0222759 22.434 -0.406538 24.1062 0.427089 25.164C1.27512 26.2392 3.07678 26.2408 4.41762 25.1687L12.0883 18.9566C12.0883 18.9566 11.9763 19.7959 11.9843 20.2994ZM31.6969 23.107C30.1161 24.7032 27.9048 25.6058 25.5095 25.6089C23.1126 25.6137 20.8998 24.7174 19.3189 23.126C18.5461 22.3501 17.9797 21.4601 17.6277 20.5085C17.2836 19.5742 17.1524 18.575 17.2404 17.5853C17.3252 16.6194 17.6133 15.6803 18.0885 14.8316C18.5509 14.0018 19.1861 13.2528 19.9701 12.6194C21.5062 11.3795 23.4614 10.7097 25.5095 10.7065C27.5576 10.7034 29.5112 11.37 31.0489 12.6036C31.8313 13.2354 32.4665 13.9812 32.9274 14.8094C33.4026 15.6582 33.6922 16.5956 33.777 17.5615C33.865 18.5528 33.7322 19.5504 33.3882 20.4863C33.0362 21.4364 32.4681 22.3279 31.6969 23.107Z" fill="#FF7021"/>
</svg>
