<svg width="45" height="45" viewBox="0 0 45 45" fill="none" xmlns="http://www.w3.org/2000/svg">
<path fill-rule="evenodd" clip-rule="evenodd" d="M41.1328 25.7358L36.2953 22.5L41.1328 19.2642V25.7358ZM24.4336 39.4523V30.4341L32.8177 24.8273L39.5845 29.3527L24.4336 39.4523ZM22.5 27.0745L15.6614 22.5L22.5 17.9255L29.34 22.5L22.5 27.0745ZM20.5664 39.4523L5.41547 29.3527L12.1837 24.8273L20.5664 30.4341V39.4523ZM3.86719 19.2642L8.70609 22.5L3.86719 25.7358V19.2642ZM20.5664 5.54766V14.5659L12.1837 20.1741L5.41547 15.6473L20.5664 5.54766ZM24.4336 5.54766L39.5845 15.6473L32.8177 20.1741L24.4336 14.5659V5.54766ZM44.9831 15.3928C44.9789 15.3633 44.9719 15.3366 44.9677 15.3084C44.9578 15.2536 44.948 15.1987 44.9339 15.1467C44.9255 15.1144 44.9128 15.0834 44.903 15.0525C44.8875 15.0047 44.872 14.9583 44.8537 14.9119C44.8411 14.8795 44.8256 14.8472 44.8102 14.8177C44.7905 14.7727 44.7694 14.7305 44.7441 14.6897C44.7272 14.6588 44.7075 14.6292 44.6892 14.5997C44.6639 14.5589 44.6372 14.5195 44.6077 14.4816C44.5866 14.4534 44.5641 14.4253 44.5416 14.3986C44.5106 14.362 44.4783 14.3269 44.4445 14.2931C44.4192 14.2678 44.3953 14.2411 44.3686 14.2186C44.332 14.1863 44.2955 14.1553 44.2589 14.1258C44.2294 14.1033 44.2012 14.0808 44.1717 14.0597C44.1605 14.0527 44.1506 14.0428 44.1394 14.0358L23.573 0.324844C22.9233 -0.108281 22.0781 -0.108281 21.427 0.324844L0.862031 14.0358C0.850781 14.0428 0.840937 14.0527 0.829687 14.0597C0.79875 14.0808 0.770625 14.1033 0.7425 14.1258C0.704531 14.1553 0.667969 14.1863 0.632812 14.2186C0.606094 14.2411 0.580781 14.2678 0.555469 14.2931C0.521719 14.3269 0.489375 14.362 0.459844 14.3986C0.435937 14.4253 0.413438 14.4534 0.392344 14.4816C0.364219 14.5195 0.3375 14.5589 0.312188 14.5997C0.2925 14.6292 0.274219 14.6588 0.255937 14.6897C0.232031 14.7305 0.210938 14.7727 0.189844 14.8177C0.175781 14.8472 0.160312 14.8795 0.147656 14.9119C0.127969 14.9583 0.1125 15.0047 0.0970312 15.0525C0.0871875 15.0834 0.0759375 15.1144 0.0675 15.1467C0.0534375 15.1987 0.0435938 15.2536 0.03375 15.3084C0.028125 15.3366 0.0210938 15.3633 0.0182813 15.3928C0.00703125 15.4744 0 15.5587 0 15.6445V29.3555C0 29.4398 0.00703125 29.5242 0.0182813 29.6086C0.0210938 29.6353 0.028125 29.6634 0.03375 29.6916C0.0435938 29.7464 0.0534375 29.7998 0.0675 29.8533C0.0759375 29.8856 0.0871875 29.9166 0.0970312 29.9475C0.1125 29.9939 0.127969 30.0417 0.147656 30.0895C0.160312 30.1205 0.175781 30.1514 0.189844 30.1823C0.210938 30.2259 0.232031 30.2681 0.255937 30.3117C0.274219 30.3413 0.2925 30.3708 0.312188 30.4003C0.3375 30.4411 0.364219 30.4791 0.392344 30.517C0.413438 30.5466 0.435937 30.5747 0.459844 30.6014C0.489375 30.6366 0.521719 30.6731 0.555469 30.7055C0.580781 30.7322 0.606094 30.7575 0.632812 30.7814C0.667969 30.8137 0.704531 30.8447 0.7425 30.8742C0.770625 30.8967 0.79875 30.9192 0.829687 30.9403C0.840937 30.9473 0.850781 30.9572 0.862031 30.9642L21.427 44.6752C21.7519 44.8917 22.1259 45 22.5 45C22.8741 45 23.2481 44.8917 23.573 44.6752L44.1394 30.9642C44.1506 30.9572 44.1605 30.9473 44.1717 30.9403C44.2012 30.9192 44.2294 30.8967 44.2589 30.8742C44.2955 30.8447 44.332 30.8137 44.3686 30.7814C44.3953 30.7575 44.4192 30.7322 44.4445 30.7055C44.4783 30.6731 44.5106 30.6366 44.5416 30.6014C44.5641 30.5747 44.5866 30.5466 44.6077 30.517C44.6372 30.4791 44.6639 30.4411 44.6892 30.4003C44.7075 30.3708 44.7272 30.3413 44.7441 30.3117C44.7694 30.2681 44.7905 30.2259 44.8102 30.1823C44.8256 30.1514 44.8411 30.1205 44.8537 30.0895C44.872 30.0417 44.8875 29.9939 44.903 29.9475C44.9128 29.9166 44.9255 29.8856 44.9339 29.8533C44.948 29.7998 44.9578 29.7464 44.9677 29.6916C44.9719 29.6634 44.9789 29.6353 44.9831 29.6086C44.9944 29.5242 45 29.4398 45 29.3555V15.6445C45 15.5587 44.9944 15.4744 44.9831 15.3928Z" fill="#FFF9F9"/>
</svg>
