<svg width="39" height="45" viewBox="0 0 39 45" fill="none" xmlns="http://www.w3.org/2000/svg">
<path d="M15.7138 39.0165C15.0434 39.0876 14.4745 39.1587 13.9057 39.2196C10.9498 39.5142 8.36966 38.7117 6.41934 36.4059C5.80987 35.6847 5.4645 34.7501 4.94645 33.9477C4.14397 32.6881 3.32119 31.4387 2.43745 30.2299C2.13271 29.8134 1.6045 29.5696 1.19819 29.2141C1.06614 29.1024 1.0255 28.889 0.934082 28.7164C1.11692 28.6453 1.28961 28.5234 1.47245 28.503C3.80876 28.2897 5.45434 29.3665 6.60218 31.3066C8.03445 33.7242 10.1067 35.0447 12.9204 35.0447C13.733 35.0447 14.5457 34.7705 15.3481 34.5876C15.5005 34.547 15.6833 34.3134 15.7037 34.1407C15.8459 33.0842 15.9779 32.0278 16.4655 31.0628C16.6483 30.7073 16.8617 30.3721 17.075 30.0064C16.2522 29.8439 15.4599 29.722 14.6777 29.529C11.0717 28.6148 8.09539 26.8067 6.36855 23.3733C5.69813 22.0325 5.32229 20.59 5.2715 19.0867C5.19024 16.7707 5.22071 14.4445 5.68797 12.159C6.02318 10.554 6.63266 9.06084 7.8516 7.90284C8.11571 7.64889 8.1665 7.42542 8.02429 7.03942C7.34371 5.13989 7.2726 3.20989 7.8516 1.26974C7.9735 0.853263 8.08524 0.436789 8.20713 0C10.9904 0.52821 12.6461 2.40742 14.2003 4.48979C15.8052 3.30131 17.7048 3.19973 19.5535 3.07784C21.7476 2.93563 23.9519 2.9661 26.1358 3.32163C27.2735 3.50447 27.9744 3.7381 29.0816 4.39837C30.0364 3.41305 30.9303 2.41758 31.9156 1.51353C32.6978 0.792316 33.673 0.33521 34.7294 0.0914208C35.024 0.0203155 35.1763 0.0507891 35.2982 0.375842C36.121 2.62074 36.2429 4.85547 35.3388 7.10037C35.217 7.4051 35.2271 7.61842 35.4811 7.86221C36.9438 9.25384 37.6142 11.0518 37.8377 12.9919C38.0408 14.7899 38.1526 16.598 38.1526 18.4061C38.1526 20.976 37.3907 23.3327 35.7756 25.3541C34.638 26.7864 33.1651 27.8123 31.4992 28.5843C29.8841 29.3258 28.1979 29.7525 26.4507 29.9759C26.4101 29.9861 26.3694 30.0166 26.2983 30.047C27.497 31.7637 27.69 33.6937 27.6696 35.6948C27.6392 38.6101 27.6493 41.5153 27.6696 44.4306C27.6696 44.8877 27.5376 44.9995 27.0906 44.9995C23.4846 44.9791 19.8785 44.9791 16.2725 44.9995C15.8255 44.9995 15.6833 44.8572 15.6833 44.4205C15.7037 42.846 15.6935 41.2715 15.6935 39.697C15.7138 39.4634 15.7138 39.2602 15.7138 39.0165Z" fill="#FFF9F9"/>
</svg>
