<svg width="34" height="33" viewBox="0 0 34 33" fill="none" xmlns="http://www.w3.org/2000/svg">
<path d="M5.97809 0H27.7805C31.0861 0 33.7586 2.61649 33.7586 5.85267V26.3715C33.7586 29.6076 31.0861 32.2241 27.7805 32.2241H5.97809C2.67256 32.2241 0 29.6076 0 26.3715V5.85267C0 2.61649 2.67256 0 5.97809 0Z" fill="#865100"/>
<path d="M16.2917 20.271H11.1102L10.0517 23.5442C10.0238 23.6696 9.9124 23.7532 9.78704 23.7392H7.16847C7.01526 23.7392 6.97347 23.6557 7.01526 23.4885L11.5002 10.5768C11.542 10.4375 11.5838 10.2843 11.6395 10.1171C11.6952 9.82464 11.7231 9.51821 11.7231 9.21178C11.7092 9.14214 11.7649 9.0725 11.8345 9.05857H15.442C15.5535 9.05857 15.6092 9.10035 15.6231 9.17L20.707 23.5164C20.7488 23.6696 20.707 23.7392 20.5677 23.7392H17.6567C17.5592 23.7532 17.4617 23.6835 17.4338 23.586L16.2917 20.271ZM11.9181 17.4435H15.456C15.3724 17.151 15.261 16.8028 15.1356 16.4407C15.0102 16.0646 14.8849 15.6607 14.7595 15.2428C14.6202 14.8111 14.4949 14.3932 14.3556 13.9614C14.2163 13.5296 14.091 13.1257 13.9795 12.7218C13.8681 12.3318 13.7706 11.9696 13.6731 11.6353H13.6452C13.5199 12.2343 13.3667 12.8332 13.1717 13.4321C12.9627 14.1007 12.7538 14.7971 12.531 15.4936C12.336 16.2039 12.127 16.8585 11.9181 17.4435ZM23.8131 11.4961C23.3534 11.51 22.9077 11.3289 22.5734 11.0086C22.2531 10.6604 22.0859 10.2007 22.0999 9.72714C22.0859 9.25357 22.267 8.80786 22.6013 8.4875C22.9356 8.16714 23.3813 8 23.8409 8C24.3841 8 24.802 8.16714 25.1084 8.4875C25.4149 8.82178 25.582 9.2675 25.5681 9.72714C25.582 10.2007 25.4149 10.6604 25.0806 11.0086C24.7602 11.3428 24.2866 11.5239 23.8131 11.4961ZM22.2531 23.586V12.8611C22.2531 12.7218 22.3088 12.6661 22.4341 12.6661H25.192C25.3174 12.6661 25.3731 12.7357 25.3731 12.8611V23.586C25.3731 23.7392 25.3174 23.8089 25.192 23.8089H22.462C22.3227 23.8089 22.2531 23.7253 22.2531 23.586Z" fill="#FF9A00"/>
</svg>
