<svg width="34" height="33" viewBox="0 0 34 33" fill="none" xmlns="http://www.w3.org/2000/svg">
<path d="M6.21332 0H27.5202C30.7507 0 33.3625 2.61649 33.3625 5.85267V26.3715C33.3625 29.6076 30.7507 32.2241 27.5202 32.2241H6.21332C2.98291 32.2241 0.371094 29.6076 0.371094 26.3715V5.85267C0.371094 2.61649 2.98291 0 6.21332 0Z" fill="#6E0B24"/>
<path d="M12.7213 8.55394V22.9003C12.7213 23.0535 12.6517 23.1232 12.5263 23.1232H9.7963C9.67095 23.1232 9.61523 23.0535 9.61523 22.9003V8.55394C9.61523 8.42858 9.68488 8.37287 9.81023 8.37287H12.5263C12.6099 8.35894 12.6934 8.41466 12.7074 8.51216C12.7213 8.52608 12.7213 8.54001 12.7213 8.55394ZM20.772 23.2903C19.7413 23.3043 18.7106 23.0953 17.7774 22.6636C16.8999 22.2596 16.1756 21.5911 15.6741 20.7693C15.1588 19.9196 14.9081 18.8611 14.9081 17.5936C14.8941 16.5629 15.1588 15.5461 15.6741 14.6546C16.2034 13.7493 16.9695 12.9971 17.8888 12.4957C18.8638 11.9525 20.0338 11.6879 21.4127 11.6879C21.4823 11.6879 21.5798 11.6879 21.7052 11.7018C21.8306 11.7157 21.9698 11.7157 22.137 11.7296V7.32823C22.137 7.23073 22.1788 7.17502 22.2763 7.17502H25.1038C25.1734 7.16109 25.2291 7.2168 25.2431 7.27252V20.5603C25.2431 20.8111 25.257 21.0896 25.2709 21.3961C25.2988 21.6886 25.3127 21.9671 25.3266 22.2039C25.3266 22.3014 25.2848 22.385 25.1873 22.4268C24.4631 22.7332 23.697 22.956 22.917 23.0953C22.2206 23.2207 21.4963 23.2903 20.772 23.2903ZM22.137 20.5046V14.3761C22.0116 14.3482 21.8863 14.3204 21.7609 14.3064C21.6077 14.2925 21.4545 14.2786 21.3013 14.2786C20.7581 14.2786 20.2148 14.39 19.7274 14.6407C19.2538 14.8775 18.8499 15.2257 18.5434 15.6714C18.237 16.1171 18.0838 16.7161 18.0838 17.4403C18.0699 17.9278 18.1534 18.4153 18.3206 18.875C18.4599 19.2511 18.6688 19.5853 18.9474 19.8639C19.212 20.1146 19.5324 20.3096 19.8945 20.4211C20.2706 20.5464 20.6606 20.6021 21.0506 20.6021C21.2595 20.6021 21.4545 20.5882 21.6356 20.5743C21.8166 20.5882 21.9838 20.5603 22.137 20.5046Z" fill="#FF3366"/>
</svg>
