<svg width="37" height="43" viewBox="0 0 37 43" fill="none" xmlns="http://www.w3.org/2000/svg">
<path fill-rule="evenodd" clip-rule="evenodd" d="M8.03446 4.81143C8.03446 7.02033 6.24864 8.81044 4.04634 8.81044C1.84388 8.81044 0.0579811 7.02025 0.0579811 4.81143C0.0579811 2.60293 1.84388 0.8125 4.04634 0.8125C6.24857 0.8125 8.03446 2.60301 8.03446 4.81143ZM8.21199 12.2383H0.0578613V37.3746H8.21199V12.2383ZM30.4223 12.533C30.39 12.5229 30.3583 12.5125 30.3267 12.502C30.2732 12.4843 30.2197 12.4666 30.1625 12.4506C30.0528 12.4257 29.9436 12.4047 29.8319 12.387C29.3993 12.3 28.9247 12.2383 28.3688 12.2383C23.6153 12.2383 20.5997 15.7051 19.6068 17.0439V12.2383H11.4526V37.3746H19.6066V23.664C19.6066 23.664 25.7685 15.0582 28.3688 21.3785V37.3746H36.5207V20.4121C36.5207 16.6141 33.9248 13.4493 30.4223 12.533Z" fill="#FFF9F9"/>
</svg>
