<svg width="39" height="39" viewBox="0 0 39 39" fill="none" xmlns="http://www.w3.org/2000/svg">
<path d="M38.3085 5.67356L20.2533 37.8301C19.8805 38.4941 18.9228 38.498 18.5444 37.8373L0.131324 5.67655C-0.28096 4.95667 0.337165 4.08456 1.15633 4.23051L19.2309 7.44814C19.3462 7.46866 19.4643 7.46846 19.5795 7.44754L37.276 4.23499C38.0925 4.0868 38.7135 4.95218 38.3085 5.67356Z" fill="url(#paint0_linear_98_454)"/>
<path d="M25.5784 0.00943714L12.2172 2.6171C12.1105 2.63793 12.0137 2.69351 11.9421 2.77509C11.8705 2.85668 11.8282 2.95965 11.8218 3.06781L10.9999 16.8936C10.9954 16.9694 11.0087 17.0453 11.0387 17.1151C11.0687 17.1849 11.1147 17.2468 11.173 17.2958C11.2312 17.3448 11.3001 17.3797 11.3743 17.3975C11.4484 17.4154 11.5257 17.4158 11.6 17.3987L15.32 16.5437C15.668 16.4637 15.9826 16.769 15.911 17.1176L14.8058 22.508C14.7315 22.8708 15.0733 23.181 15.429 23.0733L17.7267 22.3781C18.0829 22.2704 18.4252 22.5815 18.3498 22.9445L16.5935 31.4116C16.4836 31.9413 17.1909 32.23 17.4858 31.776L17.6829 31.4728L28.5704 9.83146C28.7528 9.46913 28.4383 9.05595 28.0389 9.13282L24.2096 9.86885C23.8499 9.93793 23.5438 9.60416 23.6452 9.25364L26.1445 0.624491C26.2461 0.273075 25.9386 -0.0608462 25.5784 0.00943714Z" fill="url(#paint1_linear_98_454)"/>
<defs>
<linearGradient id="paint0_linear_98_454" x1="-82.6556" y1="677.346" x2="4952.56" y2="7493.58" gradientUnits="userSpaceOnUse">
<stop stop-color="#41D1FF"/>
<stop offset="1" stop-color="#BD34FE"/>
</linearGradient>
<linearGradient id="paint1_linear_98_454" x1="1996.52" y1="184.999" x2="3028.57" y2="7241.84" gradientUnits="userSpaceOnUse">
<stop stop-color="#FFEA83"/>
<stop offset="0.083" stop-color="#FFDD35"/>
<stop offset="1" stop-color="#FFA800"/>
</linearGradient>
</defs>
</svg>
